<svg xmlns="http://www.w3.org/2000/svg"  viewBox="0 0 24 24" width="24px" height="24px" baseProfile="basic"><linearGradient id="ARi9eEjZIYMo-RUIdMJp9a" x1="6.623" x2="17.377" y1="4.392" y2="15.147" gradientUnits="userSpaceOnUse"><stop offset="0" stop-color="#fff" stop-opacity=".6"/><stop offset="1" stop-color="#fff" stop-opacity=".3"/></linearGradient><path fill="url(#ARi9eEjZIYMo-RUIdMJp9a)" d="M20.262,8H3.738c-1.542,0-2.317,1.86-1.232,2.956l7.712,7.786 c0.491,0.495,1.136,0.743,1.782,0.743c0.646,0,1.291-0.248,1.782-0.743l7.712-7.786C22.579,9.86,21.803,8,20.262,8z"/><linearGradient id="ARi9eEjZIYMo-RUIdMJp9b" x1="6.623" x2="17.377" y1="4.392" y2="15.147" gradientUnits="userSpaceOnUse"><stop offset="0" stop-color="#fff" stop-opacity=".6"/><stop offset=".493" stop-color="#fff" stop-opacity="0"/><stop offset=".997" stop-color="#fff" stop-opacity=".3"/></linearGradient><path fill="url(#ARi9eEjZIYMo-RUIdMJp9b)" d="M20.262,8.5 c0.607,0,0.987,0.392,1.14,0.76c0.153,0.367,0.165,0.913-0.262,1.344l-7.712,7.786c-0.38,0.384-0.887,0.595-1.427,0.595 c-0.54,0-1.047-0.211-1.427-0.595l-7.712-7.786C2.434,10.173,2.445,9.627,2.599,9.26C2.752,8.892,3.132,8.5,3.738,8.5H20.262 M20.262,8H3.738c-1.542,0-2.317,1.86-1.232,2.956l7.712,7.786c0.491,0.495,1.136,0.743,1.782,0.743 c0.646,0,1.291-0.248,1.782-0.743l7.712-7.786C22.579,9.86,21.803,8,20.262,8L20.262,8z"/></svg>