<svg xmlns="http://www.w3.org/2000/svg"  viewBox="0 0 24 24" width="48px" height="48px" baseProfile="basic"><linearGradient id="zCXp7RuW3DZ55QsgInTzba" x1="6.589" x2="17.409" y1="6.589" y2="17.409" gradientUnits="userSpaceOnUse"><stop offset="0" stop-color="#fff" stop-opacity=".6"/><stop offset="1" stop-color="#fff" stop-opacity=".3"/></linearGradient><path fill="url(#zCXp7RuW3DZ55QsgInTzba)" d="M18.673,13.092l0.051-0.081l-0.003-0.007C18.894,12.708,19,12.368,19,12 c0-0.974-0.697-1.783-1.619-1.962L14,9V4c0-1.105-0.895-2-2-2c-0.712,0-1.333,0.375-1.688,0.936l-0.005-0.001l-4.944,7.921 C5.136,11.18,5,11.573,5,12c0,0.91,0.611,1.669,1.442,1.911l0.002,0.006L10,15v5c0,1.105,0.895,2,2,2 c0.773,0,1.436-0.444,1.769-1.086l4.88-7.785C18.658,13.117,18.665,13.104,18.673,13.092z"/><linearGradient id="zCXp7RuW3DZ55QsgInTzbb" x1="6.589" x2="17.409" y1="6.589" y2="17.409" gradientUnits="userSpaceOnUse"><stop offset="0" stop-color="#fff" stop-opacity=".6"/><stop offset=".493" stop-color="#fff" stop-opacity="0"/><stop offset=".997" stop-color="#fff" stop-opacity=".3"/></linearGradient><path fill="url(#zCXp7RuW3DZ55QsgInTzbb)" d="M12,2.5c0.827,0,1.5,0.673,1.5,1.5v5 v0.37l0.353,0.108l3.381,1.038l0.026,0.008l0.026,0.005C17.99,10.665,18.5,11.284,18.5,12c0,0.259-0.071,0.512-0.211,0.752 l-0.052,0.095l-0.008,0.013l-0.003,0.004l-4.9,7.82C13.064,21.187,12.557,21.5,12,21.5c-0.827,0-1.5-0.673-1.5-1.5v-5v-0.37 l-0.354-0.108l-3.314-1.009l-0.003-0.009l-0.246-0.072C5.935,13.242,5.5,12.667,5.5,12c0-0.307,0.094-0.603,0.288-0.88 l4.745-7.602l0.002,0.001l0.2-0.316C11.013,2.763,11.486,2.5,12,2.5 M12,2c-0.712,0-1.333,0.375-1.688,0.936l-0.005-0.001 l-4.944,7.921C5.136,11.18,5,11.573,5,12c0,0.91,0.611,1.669,1.442,1.911l0.002,0.006L10,15v5c0,1.105,0.895,2,2,2 c0.773,0,1.436-0.444,1.769-1.086l4.88-7.785c0.008-0.012,0.015-0.025,0.023-0.037l0.051-0.081l-0.003-0.007 C18.894,12.708,19,12.368,19,12c0-0.974-0.697-1.783-1.619-1.962L14,9V4C14,2.895,13.105,2,12,2L12,2z"/></svg>