<svg xmlns="http://www.w3.org/2000/svg" viewBox="0 0 24 24" width="24px" height="24px"><path d="M19.5,11h-15c-0.012,0-0.023-0.003-0.035-0.003l2.196,9.422C6.859,21.341,7.674,22,8.617,22h6.766 c0.943,0,1.758-0.659,1.956-1.581l2.196-9.422C19.523,10.997,19.512,11,19.5,11z" fill="#6B6F76" opacity=".35"/><path d="M19.5,8h-0.58C18.432,4.614,15.519,2,12,2S5.568,4.614,5.08,8H4.5C3.672,8,3,8.672,3,9.5S3.672,11,4.5,11h15	c0.828,0,1.5-0.672,1.5-1.5S20.328,8,19.5,8z M12,4c2.414,0,4.434,1.721,4.899,4H7.101C7.566,5.721,9.586,4,12,4z" fill="#6B6F76"/></svg>
