<svg xmlns="http://www.w3.org/2000/svg"  viewBox="0 0 24 24" width="24px" height="24px"><linearGradient id="ajP8bWkNLkiEKiYOACOYca" x1="3.879" x2="20.121" y1="3.879" y2="20.121" gradientUnits="userSpaceOnUse"><stop offset="0" stop-color="#fff" stop-opacity=".6"/><stop offset="1" stop-color="#fff" stop-opacity=".3"/></linearGradient><path fill="url(#ajP8bWkNLkiEKiYOACOYca)" d="M18,3H6C4.343,3,3,4.343,3,6v12c0,1.657,1.343,3,3,3h12c1.657,0,3-1.343,3-3V6 C21,4.343,19.657,3,18,3z"/><linearGradient id="ajP8bWkNLkiEKiYOACOYcb" x1="3.879" x2="20.121" y1="3.879" y2="20.121" gradientUnits="userSpaceOnUse"><stop offset="0" stop-color="#fff" stop-opacity=".6"/><stop offset=".493" stop-color="#fff" stop-opacity="0"/><stop offset=".997" stop-color="#fff" stop-opacity=".3"/></linearGradient><path fill="url(#ajP8bWkNLkiEKiYOACOYcb)" d="M18,3.5c1.379,0,2.5,1.122,2.5,2.5v12 c0,1.378-1.121,2.5-2.5,2.5H6c-1.379,0-2.5-1.122-2.5-2.5V6c0-1.378,1.121-2.5,2.5-2.5H18 M18,3H6C4.343,3,3,4.343,3,6v12 c0,1.657,1.343,3,3,3h12c1.657,0,3-1.343,3-3V6C21,4.343,19.657,3,18,3L18,3z"/><linearGradient id="ajP8bWkNLkiEKiYOACOYcc" x1="6.939" x2="17.06" y1=".818" y2="10.939" gradientUnits="userSpaceOnUse"><stop offset="0" stop-color="#fff" stop-opacity=".6"/><stop offset="1" stop-color="#fff" stop-opacity=".3"/></linearGradient><path fill="url(#ajP8bWkNLkiEKiYOACOYcc)" d="M18,3H6C4.343,3,3,4.343,3,6v1h18V6	C21,4.343,19.656,3,18,3z"/><linearGradient id="ajP8bWkNLkiEKiYOACOYcd" x1="13.293" x2="14.707" y1="17.293" y2="18.707" gradientUnits="userSpaceOnUse"><stop offset="0" stop-color="#fff" stop-opacity=".6"/><stop offset="1" stop-color="#fff" stop-opacity=".3"/></linearGradient><circle cx="14" cy="18" r="1" fill="url(#ajP8bWkNLkiEKiYOACOYcd)"/><linearGradient id="ajP8bWkNLkiEKiYOACOYce" x1="9.293" x2="10.707" y1="17.293" y2="18.707" gradientUnits="userSpaceOnUse"><stop offset="0" stop-color="#fff" stop-opacity=".6"/><stop offset="1" stop-color="#fff" stop-opacity=".3"/></linearGradient><circle cx="10" cy="18" r="1" fill="url(#ajP8bWkNLkiEKiYOACOYce)"/><linearGradient id="ajP8bWkNLkiEKiYOACOYcf" x1="5.293" x2="6.707" y1="17.293" y2="18.707" gradientUnits="userSpaceOnUse"><stop offset="0" stop-color="#fff" stop-opacity=".6"/><stop offset="1" stop-color="#fff" stop-opacity=".3"/></linearGradient><circle cx="6" cy="18" r="1" fill="url(#ajP8bWkNLkiEKiYOACOYcf)"/><linearGradient id="ajP8bWkNLkiEKiYOACOYcg" x1="5.878" x2="10.121" y1="9.879" y2="14.121" gradientUnits="userSpaceOnUse"><stop offset="0" stop-color="#fff" stop-opacity=".6"/><stop offset="1" stop-color="#fff" stop-opacity=".3"/></linearGradient><circle cx="8" cy="12" r="3" fill="url(#ajP8bWkNLkiEKiYOACOYcg)"/><linearGradient id="ajP8bWkNLkiEKiYOACOYch" x1="17.293" x2="18.707" y1="13.293" y2="14.707" gradientUnits="userSpaceOnUse"><stop offset="0" stop-color="#fff" stop-opacity=".6"/><stop offset="1" stop-color="#fff" stop-opacity=".3"/></linearGradient><circle cx="18" cy="14" r="1" fill="url(#ajP8bWkNLkiEKiYOACOYch)"/><linearGradient id="ajP8bWkNLkiEKiYOACOYci" x1="17.293" x2="18.707" y1="9.293" y2="10.707" gradientUnits="userSpaceOnUse"><stop offset="0" stop-color="#fff" stop-opacity=".6"/><stop offset="1" stop-color="#fff" stop-opacity=".3"/></linearGradient><circle cx="18" cy="10" r="1" fill="url(#ajP8bWkNLkiEKiYOACOYci)"/><linearGradient id="ajP8bWkNLkiEKiYOACOYcj" x1="13.293" x2="14.707" y1="9.293" y2="10.707" gradientUnits="userSpaceOnUse"><stop offset="0" stop-color="#fff" stop-opacity=".6"/><stop offset="1" stop-color="#fff" stop-opacity=".3"/></linearGradient><circle cx="14" cy="10" r="1" fill="url(#ajP8bWkNLkiEKiYOACOYcj)"/><linearGradient id="ajP8bWkNLkiEKiYOACOYck" x1="13.293" x2="14.707" y1="13.293" y2="14.707" gradientUnits="userSpaceOnUse"><stop offset="0" stop-color="#fff" stop-opacity=".6"/><stop offset="1" stop-color="#fff" stop-opacity=".3"/></linearGradient><circle cx="14" cy="14" r="1" fill="url(#ajP8bWkNLkiEKiYOACOYck)"/></svg>