<svg xmlns="http://www.w3.org/2000/svg"  viewBox="0 0 24 24" width="48px" height="48px" baseProfile="basic"><linearGradient id="tSi95LK1DDiLHV2HD5x0Da" x1="3.879" x2="20.121" y1="4.879" y2="21.121" gradientUnits="userSpaceOnUse"><stop offset="0" stop-color="#fff" stop-opacity=".6"/><stop offset="1" stop-color="#fff" stop-opacity=".3"/></linearGradient><path fill="url(#tSi95LK1DDiLHV2HD5x0Da)" d="M19,5h-1.25c-0.787,0-1.528-0.37-2-1l0,0c-0.472-0.63-1.213-1-2-1h-3.5 c-0.787,0-1.528,0.37-2,1l0,0c-0.472,0.63-1.213,1-2,1H5C3.343,5,2,6.343,2,8v10c0,1.657,1.343,3,3,3h14c1.657,0,3-1.343,3-3V8 C22,6.343,20.657,5,19,5z"/><linearGradient id="tSi95LK1DDiLHV2HD5x0Db" x1="3.879" x2="20.121" y1="4.879" y2="21.121" gradientUnits="userSpaceOnUse"><stop offset="0" stop-color="#fff" stop-opacity=".6"/><stop offset=".493" stop-color="#fff" stop-opacity="0"/><stop offset=".997" stop-color="#fff" stop-opacity=".3"/></linearGradient><path fill="url(#tSi95LK1DDiLHV2HD5x0Db)" d="M13.75,3.5c0.626,0,1.224,0.299,1.6,0.8c0.564,0.751,1.461,1.2,2.4,1.2H19 c1.379,0,2.5,1.121,2.5,2.5v10c0,1.379-1.121,2.5-2.5,2.5H5c-1.379,0-2.5-1.121-2.5-2.5V8c0-1.379,1.121-2.5,2.5-2.5h1.25 c0.939,0,1.836-0.449,2.4-1.2c0.376-0.501,0.974-0.8,1.6-0.8H13.75 M13.75,3h-3.5c-0.787,0-1.528,0.37-2,1s-1.213,1-2,1H5 C3.343,5,2,6.343,2,8v10c0,1.657,1.343,3,3,3h14c1.657,0,3-1.343,3-3V8c0-1.657-1.343-3-3-3h-1.25c-0.787,0-1.528-0.37-2-1 S14.537,3,13.75,3L13.75,3z"/><linearGradient id="tSi95LK1DDiLHV2HD5x0Dc" x1="8.464" x2="15.536" y1="9.464" y2="16.535" gradientUnits="userSpaceOnUse"><stop offset="0" stop-color="#fff" stop-opacity=".7"/><stop offset=".519" stop-color="#fff" stop-opacity=".45"/><stop offset="1" stop-color="#fff" stop-opacity=".55"/></linearGradient><circle cx="12" cy="13" r="5" fill="url(#tSi95LK1DDiLHV2HD5x0Dc)"/><linearGradient id="tSi95LK1DDiLHV2HD5x0Dd" x1="18.293" x2="19.707" y1="7.293" y2="8.707" gradientUnits="userSpaceOnUse"><stop offset="0" stop-color="#fff" stop-opacity=".7"/><stop offset=".519" stop-color="#fff" stop-opacity=".45"/><stop offset="1" stop-color="#fff" stop-opacity=".55"/></linearGradient><circle cx="19" cy="8" r="1" fill="url(#tSi95LK1DDiLHV2HD5x0Dd)"/></svg>