<svg xmlns="http://www.w3.org/2000/svg"  viewBox="0 0 24 24" width="48px" height="48px" baseProfile="basic"><linearGradient id="SNQBu5wt4E2a4kBv2AbNsa" x1="5.732" x2="18.561" y1="5.439" y2="18.268" gradientUnits="userSpaceOnUse"><stop offset="0" stop-color="#fff" stop-opacity=".6"/><stop offset="1" stop-color="#fff" stop-opacity=".3"/></linearGradient><path fill="url(#SNQBu5wt4E2a4kBv2AbNsa)" d="M21,3H9C7.895,3,7,3.895,7,5v2H6.133C4.8,7,3.554,7.664,2.812,8.772L1,11.473V18 c0,1.657,1.343,3,3,3h1.998c1.299,0,2.563-0.422,3.602-1.202l5.287-3.97c0.29-0.216,0.489-0.509,0.617-0.828H21 c1.105,0,2-0.895,2-2V5C23,3.895,22.105,3,21,3z"/><linearGradient id="SNQBu5wt4E2a4kBv2AbNsb" x1="5.732" x2="18.561" y1="5.439" y2="18.268" gradientUnits="userSpaceOnUse"><stop offset="0" stop-color="#fff" stop-opacity=".6"/><stop offset=".493" stop-color="#fff" stop-opacity="0"/><stop offset=".997" stop-color="#fff" stop-opacity=".3"/></linearGradient><path fill="url(#SNQBu5wt4E2a4kBv2AbNsb)" d="M21,3.5c0.827,0,1.5,0.673,1.5,1.5v8 c0,0.827-0.673,1.5-1.5,1.5h-5.495h-0.338l-0.126,0.313c-0.106,0.263-0.258,0.469-0.454,0.615L9.3,19.398 C8.354,20.109,7.182,20.5,5.998,20.5H4c-1.378,0-2.5-1.121-2.5-2.5v-6.375L3.227,9.05C3.878,8.08,4.965,7.5,6.133,7.5H7h0.5V7V5 c0-0.827,0.673-1.5,1.5-1.5H21 M21,3H9C7.895,3,7,3.895,7,5v2H6.133C4.8,7,3.554,7.664,2.812,8.772L1,11.473V18 c0,1.657,1.343,3,3,3h1.998c1.299,0,2.563-0.422,3.602-1.202l5.287-3.97c0.29-0.216,0.489-0.509,0.617-0.828H21 c1.105,0,2-0.895,2-2V5C23,3.895,22.105,3,21,3L21,3z"/><linearGradient id="SNQBu5wt4E2a4kBv2AbNsc" x1="10.5" x2="19.5" y1="1.5" y2="10.5" gradientUnits="userSpaceOnUse"><stop offset="0" stop-color="#fff" stop-opacity=".7"/><stop offset=".519" stop-color="#fff" stop-opacity=".45"/><stop offset="1" stop-color="#fff" stop-opacity=".55"/></linearGradient><rect width="16" height="2" x="7" y="5" fill="url(#SNQBu5wt4E2a4kBv2AbNsc)"/><linearGradient id="SNQBu5wt4E2a4kBv2AbNsd" x1="1.718" x2="11.353" y1="9.758" y2="19.392" gradientUnits="userSpaceOnUse"><stop offset="0" stop-color="#fff" stop-opacity=".7"/><stop offset=".519" stop-color="#fff" stop-opacity=".45"/><stop offset="1" stop-color="#fff" stop-opacity=".55"/></linearGradient><path fill="url(#SNQBu5wt4E2a4kBv2AbNsd)" d="M13.277,12.431l-3.792,0.948	C8.223,13.694,7,12.74,7,11.438V7H6.133C4.8,7,3.554,7.664,2.812,8.772L1,11.473V18c0,1.657,1.343,3,3,3h1.998	c1.299,0,2.563-0.422,3.602-1.202l5.287-3.97c0.664-0.494,0.935-1.359,0.673-2.144l0,0C15.245,12.734,14.249,12.188,13.277,12.431z"/></svg>