<svg xmlns="http://www.w3.org/2000/svg"  viewBox="0 0 24 24" width="24px" height="24px" baseProfile="basic"><linearGradient id="6qvd0rP0V51KIVvjka3L5a" x1="3.879" x2="20.121" y1="3.879" y2="20.121" gradientUnits="userSpaceOnUse"><stop offset="0" stop-color="#fff" stop-opacity=".6"/><stop offset="1" stop-color="#fff" stop-opacity=".3"/></linearGradient><path fill="url(#6qvd0rP0V51KIVvjka3L5a)" d="M18,3H6C4.343,3,3,4.343,3,6v12c0,1.657,1.343,3,3,3h12c1.657,0,3-1.343,3-3V6 C21,4.343,19.657,3,18,3z"/><linearGradient id="6qvd0rP0V51KIVvjka3L5b" x1="3.879" x2="20.121" y1="3.879" y2="20.121" gradientUnits="userSpaceOnUse"><stop offset="0" stop-color="#fff" stop-opacity=".6"/><stop offset=".493" stop-color="#fff" stop-opacity="0"/><stop offset=".997" stop-color="#fff" stop-opacity=".3"/></linearGradient><path fill="url(#6qvd0rP0V51KIVvjka3L5b)" d="M18,3.5c1.379,0,2.5,1.122,2.5,2.5v12 c0,1.378-1.121,2.5-2.5,2.5H6c-1.379,0-2.5-1.122-2.5-2.5V6c0-1.378,1.121-2.5,2.5-2.5H18 M18,3H6C4.343,3,3,4.343,3,6v12 c0,1.657,1.343,3,3,3h12c1.657,0,3-1.343,3-3V6C21,4.343,19.657,3,18,3L18,3z"/><linearGradient id="6qvd0rP0V51KIVvjka3L5c" x1="9.793" x2="14.207" y1="11.793" y2="16.207" gradientUnits="userSpaceOnUse"><stop offset="0" stop-color="#fff" stop-opacity=".7"/><stop offset=".519" stop-color="#fff" stop-opacity=".45"/><stop offset="1" stop-color="#fff" stop-opacity=".55"/></linearGradient><path fill="url(#6qvd0rP0V51KIVvjka3L5c)" d="M11.001,19	c-0.081,0-0.162-0.009-0.244-0.03c-0.536-0.134-0.861-0.677-0.728-1.213l2-8c0.134-0.536,0.679-0.86,1.213-0.728	c0.536,0.134,0.861,0.677,0.728,1.213l-2,8C11.856,18.697,11.449,19,11.001,19z"/><linearGradient id="6qvd0rP0V51KIVvjka3L5d" x1="14.293" x2="17.707" y1="12.293" y2="15.707" gradientUnits="userSpaceOnUse"><stop offset="0" stop-color="#fff" stop-opacity=".7"/><stop offset=".519" stop-color="#fff" stop-opacity=".45"/><stop offset="1" stop-color="#fff" stop-opacity=".55"/></linearGradient><path fill="url(#6qvd0rP0V51KIVvjka3L5d)" d="M16,17c-0.256,0-0.512-0.098-0.707-0.293	c-0.391-0.391-0.391-1.023,0-1.414L16.586,14l-1.293-1.293c-0.391-0.391-0.391-1.023,0-1.414s1.023-0.391,1.414,0l2,2	c0.391,0.391,0.391,1.023,0,1.414l-2,2C16.512,16.902,16.256,17,16,17z"/><linearGradient id="6qvd0rP0V51KIVvjka3L5e" x1="6.293" x2="9.707" y1="12.293" y2="15.707" gradientUnits="userSpaceOnUse"><stop offset="0" stop-color="#fff" stop-opacity=".7"/><stop offset=".519" stop-color="#fff" stop-opacity=".45"/><stop offset="1" stop-color="#fff" stop-opacity=".55"/></linearGradient><path fill="url(#6qvd0rP0V51KIVvjka3L5e)" d="M8,17c-0.256,0-0.512-0.098-0.707-0.293	l-2-2c-0.391-0.391-0.391-1.023,0-1.414l2-2c0.391-0.391,1.023-0.391,1.414,0s0.391,1.023,0,1.414L7.414,14l1.293,1.293	c0.391,0.391,0.391,1.023,0,1.414C8.512,16.902,8.256,17,8,17z"/><linearGradient id="6qvd0rP0V51KIVvjka3L5f" x1="6.939" x2="17.061" y1=".818" y2="10.939" gradientUnits="userSpaceOnUse"><stop offset="0" stop-color="#fff" stop-opacity=".7"/><stop offset=".519" stop-color="#fff" stop-opacity=".45"/><stop offset="1" stop-color="#fff" stop-opacity=".55"/></linearGradient><path fill="url(#6qvd0rP0V51KIVvjka3L5f)" d="M21,7H3V6c0-1.657,1.343-3,3-3h12	c1.657,0,3,1.343,3,3V7z"/></svg>