<svg xmlns="http://www.w3.org/2000/svg"  viewBox="0 0 24 24" width="48px" height="48px"><linearGradient id="UZdbyvZ51TzVOWD5XrOy5a" x1="3.086" x2="20.914" y1="3.086" y2="20.914" gradientUnits="userSpaceOnUse"><stop offset="0" stop-color="#fff" stop-opacity=".6"/><stop offset="1" stop-color="#fff" stop-opacity=".3"/></linearGradient><path fill="url(#UZdbyvZ51TzVOWD5XrOy5a)" d="M21,4c-1.105,0-2,0.895-2,2H5c0-1.105-0.895-2-2-2C1.895,4,1,4.895,1,6v12 c0,1.104,0.895,2,2,2h18c1.105,0,2-0.896,2-2V6C23,4.895,22.105,4,21,4z"/><linearGradient id="UZdbyvZ51TzVOWD5XrOy5b" x1="1" x2="23" y1="12" y2="12" gradientUnits="userSpaceOnUse"><stop offset="0" stop-color="#fff" stop-opacity=".6"/><stop offset=".493" stop-color="#fff" stop-opacity="0"/><stop offset=".997" stop-color="#fff" stop-opacity=".3"/></linearGradient><path fill="url(#UZdbyvZ51TzVOWD5XrOy5b)" d="M21,4.5c0.827,0,1.5,0.673,1.5,1.5v12 c0,0.827-0.673,1.5-1.5,1.5H3c-0.827,0-1.5-0.673-1.5-1.5V6c0-0.827,0.673-1.5,1.5-1.5S4.5,5.173,4.5,6v0.5H5h14h0.5V6 C19.5,5.173,20.173,4.5,21,4.5 M21,4c-1.105,0-2,0.895-2,2H5c0-1.105-0.895-2-2-2C1.895,4,1,4.895,1,6v12c0,1.104,0.895,2,2,2h18 c1.105,0,2-0.896,2-2V6C23,4.895,22.105,4,21,4L21,4z"/><linearGradient id="UZdbyvZ51TzVOWD5XrOy5c" x1="16.293" x2="19.707" y1="11.293" y2="14.707" gradientUnits="userSpaceOnUse"><stop offset="0" stop-color="#fff" stop-opacity=".6"/><stop offset="1" stop-color="#fff" stop-opacity=".3"/></linearGradient><path fill="url(#UZdbyvZ51TzVOWD5XrOy5c)" d="M18,10L18,10c-0.552,0-1,0.448-1,1v4 c0,0.552,0.448,1,1,1h0c0.552,0,1-0.448,1-1v-4C19,10.448,18.552,10,18,10z"/><g><linearGradient id="UZdbyvZ51TzVOWD5XrOy5d" x1="12.293" x2="15.707" y1="11.293" y2="14.707" gradientUnits="userSpaceOnUse"><stop offset="0" stop-color="#fff" stop-opacity=".6"/><stop offset="1" stop-color="#fff" stop-opacity=".3"/></linearGradient><path fill="url(#UZdbyvZ51TzVOWD5XrOy5d)" d="M14,10L14,10c-0.552,0-1,0.448-1,1v4 c0,0.552,0.448,1,1,1h0c0.552,0,1-0.448,1-1v-4C15,10.448,14.552,10,14,10z"/></g><g><linearGradient id="UZdbyvZ51TzVOWD5XrOy5e" x1="8.293" x2="11.707" y1="11.293" y2="14.707" gradientUnits="userSpaceOnUse"><stop offset="0" stop-color="#fff" stop-opacity=".6"/><stop offset="1" stop-color="#fff" stop-opacity=".3"/></linearGradient><path fill="url(#UZdbyvZ51TzVOWD5XrOy5e)" d="M10,10L10,10c-0.552,0-1,0.448-1,1v4 c0,0.552,0.448,1,1,1h0c0.552,0,1-0.448,1-1v-4C11,10.448,10.552,10,10,10z"/></g><g><linearGradient id="UZdbyvZ51TzVOWD5XrOy5f" x1="4.293" x2="7.707" y1="11.293" y2="14.707" gradientUnits="userSpaceOnUse"><stop offset="0" stop-color="#fff" stop-opacity=".6"/><stop offset="1" stop-color="#fff" stop-opacity=".3"/></linearGradient><path fill="url(#UZdbyvZ51TzVOWD5XrOy5f)" d="M6,10L6,10c-0.552,0-1,0.448-1,1v4 c0,0.552,0.448,1,1,1h0c0.552,0,1-0.448,1-1v-4C7,10.448,6.552,10,6,10z"/></g></svg>