<svg xmlns="http://www.w3.org/2000/svg"  viewBox="0 0 24 24" width="24px" height="24px"><linearGradient id="-ugJW6C-URk0hHH80ko5va" x1="5.061" x2="19.074" y1="5.056" y2="19.069" gradientUnits="userSpaceOnUse"><stop offset="0" stop-color="#fff" stop-opacity=".6"/><stop offset="1" stop-color="#fff" stop-opacity=".3"/></linearGradient><path fill="url(#-ugJW6C-URk0hHH80ko5va)" d="M12,2V1.587c0-0.475-0.536-0.753-0.924-0.478L9.08,2.522c-0.33,0.234-0.33,0.723,0,0.956 l1.995,1.413C11.463,5.166,12,4.889,12,4.413V4c4.943,0,8.839,4.483,7.844,9.605c-0.606,3.119-3.12,5.633-6.239,6.239 C8.483,20.839,4,16.943,4,12c0-1.634,0.491-3.153,1.332-4.419c0.279-0.419,0.189-0.98-0.197-1.303 c-0.457-0.381-1.15-0.284-1.479,0.212c-1.266,1.913-1.894,4.286-1.573,6.816c0.571,4.501,4.254,8.124,8.763,8.629 C16.886,22.611,22,17.903,22,12C22,6.477,17.523,2,12,2z"/><linearGradient id="-ugJW6C-URk0hHH80ko5vb" x1="5.061" x2="19.074" y1="5.056" y2="19.069" gradientUnits="userSpaceOnUse"><stop offset="0" stop-color="#fff" stop-opacity=".6"/><stop offset=".493" stop-color="#fff" stop-opacity="0"/><stop offset=".997" stop-color="#fff" stop-opacity=".3"/></linearGradient><path fill="url(#-ugJW6C-URk0hHH80ko5vb)" d="M11.412,1.5 c0.019,0,0.088,0.015,0.088,0.087V2v0.5H12c5.238,0,9.5,4.262,9.5,9.5s-4.262,9.5-9.5,9.5c-0.363,0-0.733-0.021-1.098-0.062 c-4.281-0.479-7.781-3.925-8.323-8.195c-0.294-2.317,0.222-4.557,1.494-6.477C4.164,6.628,4.32,6.546,4.49,6.546 c0.084,0,0.208,0.02,0.324,0.117C5.008,6.824,5.051,7.1,4.916,7.305C3.989,8.699,3.5,10.322,3.5,12c0,4.687,3.813,8.5,8.5,8.5 c0.564,0,1.136-0.056,1.7-0.165c3.323-0.646,5.989-3.312,6.634-6.634c0.495-2.548-0.151-5.137-1.773-7.104 C16.939,4.629,14.548,3.5,12,3.5h-0.5V4v0.413c0,0.072-0.069,0.087-0.088,0.087c-0.016,0-0.031-0.005-0.048-0.017L9.369,3.07 C9.345,3.053,9.333,3.029,9.333,3s0.012-0.053,0.036-0.07l1.995-1.413C11.381,1.505,11.396,1.5,11.412,1.5 M11.412,1 c-0.114,0-0.231,0.034-0.337,0.109L9.08,2.522c-0.33,0.234-0.33,0.723,0,0.956l1.995,1.413C11.181,4.966,11.298,5,11.412,5 C11.716,5,12,4.759,12,4.413V4c4.943,0,8.839,4.483,7.844,9.605c-0.606,3.119-3.12,5.633-6.239,6.239 C13.061,19.949,12.525,20,12,20c-4.418,0-8-3.582-8-8c0-1.634,0.491-3.153,1.332-4.419c0.279-0.419,0.189-0.98-0.197-1.303 C4.946,6.121,4.717,6.046,4.49,6.046c-0.323,0-0.641,0.154-0.834,0.445c-1.266,1.913-1.894,4.286-1.573,6.816 c0.571,4.501,4.254,8.124,8.763,8.629C11.235,21.979,11.62,22,12,22c5.523,0,10-4.477,10-10c0-5.523-4.477-10-10-10V1.587 C12,1.241,11.716,1,11.412,1L11.412,1z"/><g><linearGradient id="-ugJW6C-URk0hHH80ko5vc" x1="9.471" x2="14.261" y1="9.425" y2="14.215" gradientUnits="userSpaceOnUse"><stop offset="0" stop-color="#fff" stop-opacity=".6"/><stop offset="1" stop-color="#fff" stop-opacity=".3"/></linearGradient><path fill="url(#-ugJW6C-URk0hHH80ko5vc)" d="M12.106,16C12.6,16,13,15.6,13,15.106 V9.141c0-0.664-0.538-1.201-1.201-1.201c-0.255,0-0.504,0.081-0.71,0.232L9.776,9.133c-0.329,0.241-0.425,0.691-0.222,1.045 c0.24,0.419,0.793,0.533,1.179,0.242l0.48-0.362v5.049C11.212,15.6,11.612,16,12.106,16z"/><linearGradient id="-ugJW6C-URk0hHH80ko5vd" x1="9.471" x2="14.261" y1="9.425" y2="14.215" gradientUnits="userSpaceOnUse"><stop offset="0" stop-color="#fff" stop-opacity=".6"/><stop offset=".493" stop-color="#fff" stop-opacity="0"/><stop offset=".997" stop-color="#fff" stop-opacity=".3"/></linearGradient><path fill="url(#-ugJW6C-URk0hHH80ko5vd)" d="M11.799,8.44 c0.387,0,0.701,0.315,0.701,0.701v5.965c0,0.217-0.177,0.394-0.394,0.394c-0.217,0-0.394-0.177-0.394-0.394v-5.049V9.054 l-0.801,0.605l-0.48,0.362c-0.067,0.05-0.135,0.061-0.181,0.061c-0.11,0-0.208-0.057-0.263-0.152 c-0.076-0.133-0.04-0.303,0.084-0.393l1.313-0.961C11.505,8.486,11.648,8.44,11.799,8.44 M11.799,7.94 c-0.255,0-0.504,0.081-0.71,0.232L9.776,9.133c-0.329,0.241-0.425,0.691-0.222,1.045c0.149,0.261,0.421,0.404,0.697,0.404 c0.167,0,0.337-0.052,0.482-0.162l0.48-0.362v5.049c0,0.494,0.4,0.894,0.894,0.894C12.6,16,13,15.6,13,15.106V9.141 C13,8.477,12.462,7.94,11.799,7.94L11.799,7.94z"/></g></svg>