<svg xmlns="http://www.w3.org/2000/svg"  viewBox="0 0 24 24" width="48px" height="48px" baseProfile="basic"><linearGradient id="8VWy5hefEpZdFmefdOmjHa" x1="4.794" x2="19.206" y1="4.794" y2="19.206" gradientUnits="userSpaceOnUse"><stop offset="0" stop-color="#fff" stop-opacity=".6"/><stop offset="1" stop-color="#fff" stop-opacity=".3"/></linearGradient><path fill="url(#8VWy5hefEpZdFmefdOmjHa)" d="M21,13c0.55,0,1-0.45,1-1s-0.45-1-1-1h-1V9h1c0.55,0,1-0.45,1-1s-0.45-1-1-1h-1	c0-1.657-1.343-3-3-3V3c0-0.55-0.45-1-1-1s-1,0.45-1,1v1h-2V3c0-0.55-0.45-1-1-1s-1,0.45-1,1v1H9V3c0-0.55-0.45-1-1-1S7,2.45,7,3v1	C5.343,4,4,5.343,4,7H3C2.45,7,2,7.45,2,8s0.45,1,1,1h1v2H3c-0.55,0-1,0.45-1,1s0.45,1,1,1h1v2H3c-0.55,0-1,0.45-1,1s0.45,1,1,1h1	c0,1.657,1.343,3,3,3v1c0,0.55,0.45,1,1,1s1-0.45,1-1v-1h2v1c0,0.55,0.45,1,1,1s1-0.45,1-1v-1h2v1c0,0.55,0.45,1,1,1s1-0.45,1-1v-1	c1.657,0,3-1.343,3-3h1c0.55,0,1-0.45,1-1s-0.45-1-1-1h-1v-2H21z"/><linearGradient id="8VWy5hefEpZdFmefdOmjHb" x1="4.794" x2="19.206" y1="4.794" y2="19.206" gradientUnits="userSpaceOnUse"><stop offset="0" stop-color="#fff" stop-opacity=".6"/><stop offset=".493" stop-color="#fff" stop-opacity="0"/><stop offset=".997" stop-color="#fff" stop-opacity=".3"/></linearGradient><path fill="url(#8VWy5hefEpZdFmefdOmjHb)" d="M16,2.5c0.276,0,0.5,0.224,0.5,0.5v1v0.5H17c1.378,0,2.5,1.122,2.5,2.5v0.5H20h1	c0.276,0,0.5,0.224,0.5,0.5S21.276,8.5,21,8.5h-1h-0.5V9v2v0.5H20h1c0.276,0,0.5,0.224,0.5,0.5s-0.224,0.5-0.5,0.5h-1h-0.5V13v2v0.5	H20h1c0.276,0,0.5,0.224,0.5,0.5s-0.224,0.5-0.5,0.5h-1h-0.5V17c0,1.378-1.122,2.5-2.5,2.5h-0.5V20v1c0,0.276-0.224,0.5-0.5,0.5	s-0.5-0.224-0.5-0.5v-1v-0.5H15h-2h-0.5V20v1c0,0.276-0.224,0.5-0.5,0.5s-0.5-0.224-0.5-0.5v-1v-0.5H11H9H8.5V20v1	c0,0.276-0.224,0.5-0.5,0.5c-0.276,0-0.5-0.224-0.5-0.5v-1v-0.5H7c-1.378,0-2.5-1.122-2.5-2.5v-0.5H4H3c-0.276,0-0.5-0.224-0.5-0.5	s0.224-0.5,0.5-0.5h1h0.5V15v-2v-0.5H4H3c-0.276,0-0.5-0.224-0.5-0.5s0.224-0.5,0.5-0.5h1h0.5V11V9V8.5H4H3	C2.724,8.5,2.5,8.276,2.5,8S2.724,7.5,3,7.5h1h0.5V7c0-1.378,1.122-2.5,2.5-2.5h0.5V4V3c0-0.276,0.224-0.5,0.5-0.5	c0.276,0,0.5,0.224,0.5,0.5v1v0.5H9h2h0.5V4V3c0-0.276,0.224-0.5,0.5-0.5s0.5,0.224,0.5,0.5v1v0.5H13h2h0.5V4V3	C15.5,2.724,15.724,2.5,16,2.5 M16,2c-0.55,0-1,0.45-1,1v1h-2V3c0-0.55-0.45-1-1-1s-1,0.45-1,1v1H9V3c0-0.55-0.45-1-1-1S7,2.45,7,3	v1C5.343,4,4,5.343,4,7H3C2.45,7,2,7.45,2,8s0.45,1,1,1h1v2H3c-0.55,0-1,0.45-1,1s0.45,1,1,1h1v2H3c-0.55,0-1,0.45-1,1s0.45,1,1,1h1	c0,1.657,1.343,3,3,3v1c0,0.55,0.45,1,1,1s1-0.45,1-1v-1h2v1c0,0.55,0.45,1,1,1s1-0.45,1-1v-1h2v1c0,0.55,0.45,1,1,1s1-0.45,1-1v-1	c1.657,0,3-1.343,3-3h1c0.55,0,1-0.45,1-1s-0.45-1-1-1h-1v-2h1c0.55,0,1-0.45,1-1s-0.45-1-1-1h-1V9h1c0.55,0,1-0.45,1-1s-0.45-1-1-1	h-1c0-1.657-1.343-3-3-3V3C17,2.45,16.55,2,16,2L16,2z"/><linearGradient id="8VWy5hefEpZdFmefdOmjHc" x1="11.147" x2="12.853" y1="2.441" y2="4.147" gradientUnits="userSpaceOnUse"><stop offset="0" stop-color="#fff" stop-opacity=".7"/><stop offset=".519" stop-color="#fff" stop-opacity=".45"/><stop offset="1" stop-color="#fff" stop-opacity=".55"/></linearGradient><path fill="url(#8VWy5hefEpZdFmefdOmjHc)" d="M13,3v1h-2V3c0-0.55,0.45-1,1-1S13,2.45,13,3z"/><linearGradient id="8VWy5hefEpZdFmefdOmjHd" x1="7.147" x2="8.853" y1="2.441" y2="4.147" gradientUnits="userSpaceOnUse"><stop offset="0" stop-color="#fff" stop-opacity=".7"/><stop offset=".519" stop-color="#fff" stop-opacity=".45"/><stop offset="1" stop-color="#fff" stop-opacity=".55"/></linearGradient><path fill="url(#8VWy5hefEpZdFmefdOmjHd)" d="M9,3v1H7V3c0-0.55,0.45-1,1-1S9,2.45,9,3z"/><linearGradient id="8VWy5hefEpZdFmefdOmjHe" x1="15.147" x2="16.853" y1="2.441" y2="4.147" gradientUnits="userSpaceOnUse"><stop offset="0" stop-color="#fff" stop-opacity=".7"/><stop offset=".519" stop-color="#fff" stop-opacity=".45"/><stop offset="1" stop-color="#fff" stop-opacity=".55"/></linearGradient><path fill="url(#8VWy5hefEpZdFmefdOmjHe)" d="M17,3v1h-2V3c0-0.55,0.45-1,1-1S17,2.45,17,3z"/><linearGradient id="8VWy5hefEpZdFmefdOmjHf" x1="2.441" x2="4.147" y1="11.147" y2="12.853" gradientUnits="userSpaceOnUse"><stop offset="0" stop-color="#fff" stop-opacity=".7"/><stop offset=".519" stop-color="#fff" stop-opacity=".45"/><stop offset="1" stop-color="#fff" stop-opacity=".55"/></linearGradient><path fill="url(#8VWy5hefEpZdFmefdOmjHf)" d="M4,11v2H3c-0.55,0-1-0.45-1-1s0.45-1,1-1H4z"/><linearGradient id="8VWy5hefEpZdFmefdOmjHg" x1="2.441" x2="4.147" y1="15.147" y2="16.853" gradientUnits="userSpaceOnUse"><stop offset="0" stop-color="#fff" stop-opacity=".7"/><stop offset=".519" stop-color="#fff" stop-opacity=".45"/><stop offset="1" stop-color="#fff" stop-opacity=".55"/></linearGradient><path fill="url(#8VWy5hefEpZdFmefdOmjHg)" d="M4,15v2H3c-0.55,0-1-0.45-1-1s0.45-1,1-1H4z"/><linearGradient id="8VWy5hefEpZdFmefdOmjHh" x1="2.441" x2="4.147" y1="7.147" y2="8.853" gradientUnits="userSpaceOnUse"><stop offset="0" stop-color="#fff" stop-opacity=".7"/><stop offset=".519" stop-color="#fff" stop-opacity=".45"/><stop offset="1" stop-color="#fff" stop-opacity=".55"/></linearGradient><path fill="url(#8VWy5hefEpZdFmefdOmjHh)" d="M4,7v2H3C2.45,9,2,8.55,2,8s0.45-1,1-1H4z"/><linearGradient id="8VWy5hefEpZdFmefdOmjHi" x1="19.853" x2="21.559" y1="11.147" y2="12.853" gradientUnits="userSpaceOnUse"><stop offset="0" stop-color="#fff" stop-opacity=".7"/><stop offset=".519" stop-color="#fff" stop-opacity=".45"/><stop offset="1" stop-color="#fff" stop-opacity=".55"/></linearGradient><path fill="url(#8VWy5hefEpZdFmefdOmjHi)" d="M22,12c0,0.55-0.45,1-1,1h-1v-2h1C21.55,11,22,11.45,22,12z"/><linearGradient id="8VWy5hefEpZdFmefdOmjHj" x1="19.853" x2="21.559" y1="7.147" y2="8.853" gradientUnits="userSpaceOnUse"><stop offset="0" stop-color="#fff" stop-opacity=".7"/><stop offset=".519" stop-color="#fff" stop-opacity=".45"/><stop offset="1" stop-color="#fff" stop-opacity=".55"/></linearGradient><path fill="url(#8VWy5hefEpZdFmefdOmjHj)" d="M22,8c0,0.55-0.45,1-1,1h-1V7h1C21.55,7,22,7.45,22,8z"/><linearGradient id="8VWy5hefEpZdFmefdOmjHk" x1="19.853" x2="21.559" y1="15.147" y2="16.853" gradientUnits="userSpaceOnUse"><stop offset="0" stop-color="#fff" stop-opacity=".7"/><stop offset=".519" stop-color="#fff" stop-opacity=".45"/><stop offset="1" stop-color="#fff" stop-opacity=".55"/></linearGradient><path fill="url(#8VWy5hefEpZdFmefdOmjHk)" d="M22,16c0,0.55-0.45,1-1,1h-1v-2h1C21.55,15,22,15.45,22,16z"/><linearGradient id="8VWy5hefEpZdFmefdOmjHl" x1="7.147" x2="8.853" y1="19.853" y2="21.559" gradientUnits="userSpaceOnUse"><stop offset="0" stop-color="#fff" stop-opacity=".7"/><stop offset=".519" stop-color="#fff" stop-opacity=".45"/><stop offset="1" stop-color="#fff" stop-opacity=".55"/></linearGradient><path fill="url(#8VWy5hefEpZdFmefdOmjHl)" d="M9,20v1c0,0.55-0.45,1-1,1s-1-0.45-1-1v-1H9z"/><linearGradient id="8VWy5hefEpZdFmefdOmjHm" x1="11.147" x2="12.853" y1="19.853" y2="21.559" gradientUnits="userSpaceOnUse"><stop offset="0" stop-color="#fff" stop-opacity=".7"/><stop offset=".519" stop-color="#fff" stop-opacity=".45"/><stop offset="1" stop-color="#fff" stop-opacity=".55"/></linearGradient><path fill="url(#8VWy5hefEpZdFmefdOmjHm)" d="M13,20v1c0,0.55-0.45,1-1,1s-1-0.45-1-1v-1H13z"/><linearGradient id="8VWy5hefEpZdFmefdOmjHn" x1="15.147" x2="16.853" y1="19.853" y2="21.559" gradientUnits="userSpaceOnUse"><stop offset="0" stop-color="#fff" stop-opacity=".7"/><stop offset=".519" stop-color="#fff" stop-opacity=".45"/><stop offset="1" stop-color="#fff" stop-opacity=".55"/></linearGradient><path fill="url(#8VWy5hefEpZdFmefdOmjHn)" d="M17,20v1c0,0.55-0.45,1-1,1s-1-0.45-1-1v-1H17z"/><linearGradient id="8VWy5hefEpZdFmefdOmjHo" x1="7.293" x2="8.707" y1="7.293" y2="8.707" gradientUnits="userSpaceOnUse"><stop offset="0" stop-color="#fff" stop-opacity=".7"/><stop offset=".519" stop-color="#fff" stop-opacity=".45"/><stop offset="1" stop-color="#fff" stop-opacity=".55"/></linearGradient><circle cx="8" cy="8" r="1" fill="url(#8VWy5hefEpZdFmefdOmjHo)"/><linearGradient id="8VWy5hefEpZdFmefdOmjHp" x1="15.293" x2="16.707" y1="15.293" y2="16.707" gradientUnits="userSpaceOnUse"><stop offset="0" stop-color="#fff" stop-opacity=".7"/><stop offset=".519" stop-color="#fff" stop-opacity=".45"/><stop offset="1" stop-color="#fff" stop-opacity=".55"/></linearGradient><circle cx="16" cy="16" r="1" fill="url(#8VWy5hefEpZdFmefdOmjHp)"/></svg>