<svg xmlns="http://www.w3.org/2000/svg"  viewBox="0 0 24 24" width="48px" height="48px"><path d="M 12.138672 0.005859375 C 11.831672 -0.001140625 11.439031 0.000765625 11.082031 0.009765625 C 11.069031 0.009765625 10.986656 0.01853125 10.972656 0.01953125 L 10.660156 0.052734375 C 8.3541562 0.29473438 6.0707969 1.2770781 4.2167969 2.8300781 C 3.7207969 3.2690781 3.2694062 3.7184687 2.8164062 4.2304688 C 1.2884063 6.0544687 0.38659375 8.1209219 0.05859375 10.544922 C -0.01740625 11.103922 -0.01740625 12.901938 0.05859375 13.460938 C 0.38759375 15.884937 1.2904062 17.950391 2.8164062 19.775391 C 2.8194063 19.779391 2.8221719 19.782156 2.8261719 19.785156 C 3.2661719 20.283156 3.7165625 20.732594 4.2265625 21.183594 C 6.0515625 22.711594 8.1160156 23.614359 10.541016 23.943359 C 10.696387 23.964521 11.058959 23.965232 11.353516 23.974609 C 11.379539 23.978795 11.402489 23.990234 11.429688 23.990234 C 11.448264 23.990234 11.464369 23.98244 11.482422 23.980469 C 11.677834 23.985251 11.790705 24 12 24 C 12.59 24 13.180937 23.979359 13.460938 23.943359 C 14.864634 23.752262 16.143862 23.364106 17.332031 22.777344 C 17.338875 22.774495 17.344877 22.770717 17.351562 22.767578 C 18.20791 22.34269 19.018205 21.817414 19.785156 21.175781 C 20.280156 20.738781 20.729594 20.288391 21.183594 19.775391 C 22.712594 17.950391 23.614406 15.884891 23.941406 13.462891 C 24.018406 12.903891 24.018406 11.103922 23.941406 10.544922 C 23.612406 8.1209219 22.711781 6.0557031 21.175781 4.2207031 C 20.736781 3.7237031 20.287391 3.2733125 19.775391 2.8203125 C 17.943391 1.2883125 15.882563 0.38745313 13.476562 0.064453125 C 13.207562 0.028453125 12.842672 0.011859375 12.138672 0.005859375 z M 11.679688 1 L 12.123047 1.0058594 C 12.780047 1.0118594 13.120797 1.0246875 13.341797 1.0546875 C 15.555797 1.3516875 17.450672 2.1787969 19.138672 3.5917969 C 19.592672 3.9937969 20.012062 4.4141406 20.414062 4.8691406 C 21.817063 6.5461406 22.646219 8.4476875 22.949219 10.679688 C 23.013219 11.148688 23.013219 12.855172 22.949219 13.326172 C 22.647219 15.557172 21.818203 17.455672 20.408203 19.138672 C 20.006203 19.593672 19.584859 20.015969 19.130859 20.417969 C 18.652057 20.818495 18.152743 21.166517 17.634766 21.474609 L 17.632812 21.244141 C 17.628812 20.732141 17.626094 20.342063 17.621094 20.289062 C 17.591094 19.482062 17.443359 17.421766 17.318359 16.259766 C 17.061359 13.673766 16.850781 12.711797 16.300781 11.591797 C 15.928781 10.816797 15.524609 10.262328 14.849609 9.6113281 C 14.414609 9.2073281 14.209578 9.0345 13.767578 8.8125 C 13.141578 8.4955 12.498875 8.2895937 11.796875 8.1835938 C 11.060875 8.0855937 10.257391 8.1017969 9.6503906 8.2167969 C 7.7363906 8.5717969 5.9044219 9.5886406 4.9824219 10.806641 C 4.7594219 11.100641 4.5268281 11.582797 4.4238281 11.966797 C 4.3528281 12.271797 4.3215781 12.820156 4.3925781 13.160156 C 4.5265781 13.747156 4.949375 14.236266 5.609375 14.572266 C 6.042375 14.798266 6.665125 15.055094 7.078125 15.121094 C 7.791125 15.241094 8.5025781 15.250797 9.1425781 15.216797 C 9.5595781 15.172797 10.134359 15.052437 10.693359 14.898438 C 10.650359 15.011437 10.656313 15.170203 10.695312 15.283203 C 10.738313 15.405203 10.861828 16.108016 10.923828 16.791016 C 11.036828 17.882016 11.053937 19.896703 10.960938 21.595703 L 10.947266 22.011719 C 10.938266 22.238719 10.929688 22.450312 10.929688 22.570312 L 10.929688 22.960938 C 10.863909 22.955901 10.721035 22.957404 10.675781 22.951172 C 8.4437812 22.649172 6.5443281 21.819156 4.8613281 20.410156 C 4.4113281 20.011156 3.990125 19.591953 3.578125 19.126953 C 2.179125 17.452953 1.3528281 15.554219 1.0488281 13.324219 C 0.98582813 12.854219 0.98582813 11.147734 1.0488281 10.677734 C 1.3518281 8.4457344 2.1798437 6.5462812 3.5898438 4.8632812 C 3.9908438 4.4092812 4.4121875 3.9879375 4.8671875 3.5859375 C 6.5601875 2.1679375 8.6558594 1.2659219 10.755859 1.0449219 L 11.107422 1.0078125 C 11.297422 1.0038125 11.487687 1 11.679688 1 z M 10.705078 9.1191406 C 11.015675 9.1142435 11.337924 9.1312124 11.636719 9.1699219 C 11.644505 9.1712763 11.650285 9.176737 11.658203 9.1777344 C 11.668703 9.1792344 11.679203 9.1790625 11.689453 9.1796875 C 12.26933 9.2709634 12.787923 9.4354515 13.316406 9.703125 C 13.640406 9.865125 13.774109 9.9778906 14.162109 10.337891 C 14.744109 10.900891 15.079391 11.356344 15.400391 12.027344 C 15.889391 13.023344 16.080219 13.914328 16.324219 16.361328 C 16.447219 17.508328 16.593047 19.533703 16.623047 20.345703 C 16.628047 20.427703 16.629812 20.784047 16.632812 21.248047 L 16.638672 21.998047 C 15.616572 22.469682 14.517708 22.788815 13.322266 22.951172 C 13.075318 22.985397 12.502082 22.999864 11.929688 22.998047 L 11.929688 22.564453 C 11.929688 22.453453 11.937313 22.254969 11.945312 22.042969 L 11.958984 21.632812 C 12.053984 19.900813 12.035969 17.818453 11.917969 16.689453 C 11.887969 16.368453 11.820328 15.807094 11.736328 15.371094 C 12.439328 15.118094 12.864953 14.871672 13.001953 14.638672 C 13.145953 14.393672 13.142141 14.091078 12.994141 13.830078 C 12.826141 13.537078 12.513687 13.355469 12.179688 13.355469 C 11.985687 13.355469 11.721813 13.475531 11.632812 13.519531 C 11.003813 13.805531 9.7434531 14.145797 9.0644531 14.216797 C 8.5574531 14.242797 7.8872344 14.240813 7.2402344 14.132812 C 7.0252344 14.097812 6.5424062 13.928688 6.0664062 13.679688 C 5.6704063 13.477687 5.4341406 13.226359 5.3691406 12.943359 C 5.3351406 12.783359 5.3515312 12.389078 5.3945312 12.205078 C 5.4605313 11.960078 5.6332969 11.602203 5.7792969 11.408203 C 5.9638561 11.164844 6.200601 10.929599 6.4726562 10.707031 C 6.4467958 10.779506 6.4285238 10.855464 6.4257812 10.935547 C 6.4167812 11.221547 6.5682656 11.481281 6.8222656 11.613281 C 6.8222656 11.613281 6.8242188 11.615234 6.8242188 11.615234 C 6.9452187 11.677234 7.0713594 11.705078 7.1933594 11.705078 C 7.4433594 11.705078 7.6766406 11.580375 7.8066406 11.359375 C 7.8836406 11.238375 7.9257812 11.099078 7.9257812 10.955078 C 7.9257813 10.545218 7.5967465 10.213658 7.1914062 10.207031 C 7.9626257 9.7399106 8.8906637 9.3725025 9.8339844 9.1972656 C 10.084484 9.1507656 10.387953 9.1241406 10.705078 9.1191406 z M 9.2265625 10.511719 C 9.0960625 10.512594 8.9651094 10.548188 8.8496094 10.617188 C 8.6226094 10.757187 8.4863281 10.996719 8.4863281 11.261719 C 8.4863281 11.524719 8.6206562 11.764297 8.8476562 11.904297 C 8.8516563 11.906297 8.855375 11.910109 8.859375 11.912109 C 8.973375 11.978109 9.1034219 12.011719 9.2324219 12.011719 C 9.3614219 12.011719 9.4904219 11.978156 9.6074219 11.910156 C 9.8404219 11.776156 9.9863281 11.525813 9.9863281 11.257812 C 9.9863281 10.992812 9.8404687 10.745328 9.6054688 10.611328 C 9.4879688 10.543828 9.3570625 10.510844 9.2265625 10.511719 z M 7.1894531 10.705078 C 7.2234531 10.705078 7.25525 10.710609 7.28125 10.724609 L 7.0566406 11.164062 L 7.2832031 10.726562 C 7.3712031 10.772563 7.4287813 10.868797 7.4257812 10.966797 C 7.4227812 11.060797 7.3640625 11.146688 7.2890625 11.179688 C 7.2119183 11.215145 7.1263572 11.203591 7.0566406 11.164062 C 6.9808587 11.121095 6.9257812 11.044273 6.9257812 10.953125 C 6.9257812 10.906125 6.937125 10.859937 6.953125 10.835938 C 7.003125 10.748938 7.1034531 10.705078 7.1894531 10.705078 z M 9.2304688 11.011719 C 9.2764687 11.011719 9.3213281 11.023875 9.3613281 11.046875 L 9.109375 11.478516 L 9.3710938 11.052734 C 9.4420937 11.095734 9.4863281 11.175719 9.4863281 11.261719 C 9.4863281 11.346719 9.4422344 11.426609 9.3652344 11.474609 C 9.2842344 11.521609 9.1883281 11.523469 9.1113281 11.480469 C 9.1113281 11.480469 9.109375 11.478516 9.109375 11.478516 C 9.0357371 11.435046 8.9863281 11.349813 8.9863281 11.257812 C 8.9863281 11.168813 9.034375 11.087922 9.109375 11.044922 C 9.146375 11.023922 9.1874688 11.011719 9.2304688 11.011719 z"/></svg>