<svg xmlns="http://www.w3.org/2000/svg"  viewBox="0 0 24 24" width="48px" height="48px"><linearGradient id="bBKG-4u5xi5AHdp54mKQSa" x1="3.879" x2="20.121" y1="3.879" y2="20.121" gradientUnits="userSpaceOnUse"><stop offset="0" stop-color="#fff" stop-opacity=".6"/><stop offset="1" stop-color="#fff" stop-opacity=".3"/></linearGradient><path fill="url(#bBKG-4u5xi5AHdp54mKQSa)" d="M18,3H6C4.343,3,3,4.343,3,6v12c0,1.657,1.343,3,3,3h12c1.657,0,3-1.343,3-3V6 C21,4.343,19.657,3,18,3z"/><linearGradient id="bBKG-4u5xi5AHdp54mKQSb" x1="3.879" x2="20.121" y1="3.879" y2="20.121" gradientUnits="userSpaceOnUse"><stop offset="0" stop-color="#fff" stop-opacity=".6"/><stop offset=".493" stop-color="#fff" stop-opacity="0"/><stop offset=".997" stop-color="#fff" stop-opacity=".3"/></linearGradient><path fill="url(#bBKG-4u5xi5AHdp54mKQSb)" d="M18,3.5c1.379,0,2.5,1.121,2.5,2.5v12 c0,1.379-1.121,2.5-2.5,2.5H6c-1.379,0-2.5-1.121-2.5-2.5V6c0-1.379,1.121-2.5,2.5-2.5H18 M18,3H6C4.343,3,3,4.343,3,6v12 c0,1.657,1.343,3,3,3h12c1.657,0,3-1.343,3-3V6C21,4.343,19.657,3,18,3L18,3z"/><g><linearGradient id="bBKG-4u5xi5AHdp54mKQSc" x1="11.293" x2="12.707" y1="11.293" y2="12.707" gradientUnits="userSpaceOnUse"><stop offset="0" stop-color="#fff" stop-opacity=".6"/><stop offset="1" stop-color="#fff" stop-opacity=".3"/></linearGradient><circle cx="12" cy="12" r="1" fill="url(#bBKG-4u5xi5AHdp54mKQSc)"/><g><linearGradient id="bBKG-4u5xi5AHdp54mKQSd" x1="7.05" x2="16.95" y1="7.05" y2="16.95" gradientUnits="userSpaceOnUse"><stop offset="0" stop-color="#fff" stop-opacity=".6"/><stop offset="1" stop-color="#fff" stop-opacity=".3"/></linearGradient><path fill="url(#bBKG-4u5xi5AHdp54mKQSd)" d="M12,5c-3.866,0-7,3.134-7,7s3.134,7,7,7 c3.866,0,7-3.134,7-7S15.866,5,12,5z M12,15c-1.657,0-3-1.343-3-3s1.343-3,3-3s3,1.343,3,3S13.657,15,12,15z"/></g></g></svg>