<svg xmlns="http://www.w3.org/2000/svg"  viewBox="0 0 24 24" width="48px" height="48px" baseProfile="basic"><linearGradient id="sLD2FpxQ0iamV4DEo4hZZa" x1="5.122" x2="18.878" y1="9.204" y2="22.96" gradientUnits="userSpaceOnUse"><stop offset="0" stop-color="#fff" stop-opacity=".6"/><stop offset="1" stop-color="#fff" stop-opacity=".3"/></linearGradient><path fill="url(#sLD2FpxQ0iamV4DEo4hZZa)" d="M21.734,18.025L13.718,4.14C13.364,3.526,12.708,3.148,12,3.148s-1.364,0.378-1.718,0.992 L2.266,18.025c-0.354,0.614-0.354,1.369,0,1.984C2.62,20.622,3.275,21,3.984,21h16.033c0.708,0,1.364-0.378,1.718-0.992 C22.089,19.394,22.089,18.639,21.734,18.025z"/><linearGradient id="sLD2FpxQ0iamV4DEo4hZZb" x1="5.122" x2="18.878" y1="9.204" y2="22.96" gradientUnits="userSpaceOnUse"><stop offset="0" stop-color="#fff" stop-opacity=".6"/><stop offset=".493" stop-color="#fff" stop-opacity="0"/><stop offset=".997" stop-color="#fff" stop-opacity=".3"/></linearGradient><path fill="url(#sLD2FpxQ0iamV4DEo4hZZb)" d="M12,3.648c0.529,0,1.021,0.284,1.285,0.742l8.016,13.885c0.264,0.458,0.264,1.026,0,1.484 c-0.264,0.457-0.756,0.741-1.285,0.741H3.984c-0.529,0-1.021-0.284-1.285-0.742c-0.264-0.458-0.264-1.026,0-1.484L10.715,4.39 C10.979,3.932,11.471,3.648,12,3.648 M12,3.148c-0.708,0-1.364,0.378-1.718,0.992L2.266,18.025c-0.354,0.614-0.354,1.37,0,1.984 C2.62,20.622,3.275,21,3.984,21h16.033c0.708,0,1.364-0.378,1.718-0.992c0.354-0.614,0.354-1.37,0-1.984L13.718,4.14 C13.364,3.526,12.708,3.148,12,3.148L12,3.148z"/><linearGradient id="sLD2FpxQ0iamV4DEo4hZZc" x1="9.134" x2="14.862" y1="10.905" y2="16.634" gradientUnits="userSpaceOnUse"><stop offset="0" stop-color="#fff" stop-opacity=".7"/><stop offset=".519" stop-color="#fff" stop-opacity=".45"/><stop offset="1" stop-color="#fff" stop-opacity=".55"/></linearGradient><path fill="url(#sLD2FpxQ0iamV4DEo4hZZc)" d="M13.179,17.746c0,0.353-0.205,1.254-1.185,1.254s-1.173-0.902-1.173-1.254	c0-0.345,0.218-1.269,1.173-1.269S13.179,17.401,13.179,17.746z M10.919,13.919V9.568c0-0.597,0.484-1.081,1.081-1.081h0	c0.597,0,1.081,0.484,1.081,1.081v4.352C13.081,14.516,12.597,15,12,15h0C11.403,15,10.919,14.516,10.919,13.919z"/></svg>