<svg xmlns="http://www.w3.org/2000/svg"  viewBox="0 0 24 24" width="48px" height="48px" baseProfile="basic"><linearGradient id="MWJ9shssr5UqllRgvh6Bza" x1="4.568" x2="19.432" y1="5.947" y2="20.811" gradientUnits="userSpaceOnUse"><stop offset="0" stop-color="#fff" stop-opacity=".6"/><stop offset="1" stop-color="#fff" stop-opacity=".3"/></linearGradient><path fill="url(#MWJ9shssr5UqllRgvh6Bza)" d="M18,7c0-3.314-2.686-6-6-6S6,3.686,6,7c-1.657,0-3,1.343-3,3v8c0,1.657,1.343,3,3,3h12 c1.657,0,3-1.343,3-3v-8C21,8.343,19.657,7,18,7z M8,7c0-2.209,1.791-4,4-4s4,1.791,4,4H8z"/><linearGradient id="MWJ9shssr5UqllRgvh6Bzb" x1="4.568" x2="19.432" y1="5.947" y2="20.811" gradientUnits="userSpaceOnUse"><stop offset="0" stop-color="#fff" stop-opacity=".6"/><stop offset=".493" stop-color="#fff" stop-opacity="0"/><stop offset=".997" stop-color="#fff" stop-opacity=".3"/></linearGradient><path fill="url(#MWJ9shssr5UqllRgvh6Bzb)" d="M12,1.5c3.033,0,5.5,2.467,5.5,5.5v0.5H18 c1.378,0,2.5,1.121,2.5,2.5v8c0,1.379-1.122,2.5-2.5,2.5H6c-1.378,0-2.5-1.121-2.5-2.5v-8c0-1.379,1.122-2.5,2.5-2.5h0.5V7 C6.5,3.967,8.967,1.5,12,1.5 M7.5,7.5H8h8h0.5V7c0-2.481-2.019-4.5-4.5-4.5S7.5,4.519,7.5,7V7.5 M12,1C8.686,1,6,3.686,6,7 c-1.657,0-3,1.343-3,3v8c0,1.657,1.343,3,3,3h12c1.657,0,3-1.343,3-3v-8c0-1.657-1.343-3-3-3C18,3.686,15.314,1,12,1L12,1z M8,7 c0-2.209,1.791-4,4-4s4,1.791,4,4H8L8,7z"/><linearGradient id="MWJ9shssr5UqllRgvh6Bzc" x1="8.252" x2="15.75" y1="2.263" y2="9.761" gradientUnits="userSpaceOnUse"><stop offset="0" stop-color="#fff" stop-opacity=".7"/><stop offset=".519" stop-color="#fff" stop-opacity=".45"/><stop offset="1" stop-color="#fff" stop-opacity=".55"/></linearGradient><path fill="url(#MWJ9shssr5UqllRgvh6Bzc)" d="M8,7c0-2.209,1.791-4,4-4s4,1.791,4,4	v0.506l2,0.005V7c0-3.314-2.686-6-6-6S6,3.686,6,7v0.506l2,0.005V7z"/><linearGradient id="MWJ9shssr5UqllRgvh6Bzd" x1="10.586" x2="13.414" y1="12.586" y2="15.414" gradientUnits="userSpaceOnUse"><stop offset="0" stop-color="#fff" stop-opacity=".7"/><stop offset=".519" stop-color="#fff" stop-opacity=".45"/><stop offset="1" stop-color="#fff" stop-opacity=".55"/></linearGradient><path fill="url(#MWJ9shssr5UqllRgvh6Bzd)" d="M12,12c-1.105,0-2,0.895-2,2s0.895,2,2,2	s2-0.895,2-2S13.105,12,12,12z"/></svg>