<svg xmlns="http://www.w3.org/2000/svg"  viewBox="0 0 24 24" width="100px" height="100px"><linearGradient id="O5mZXqOL4OeOM-A4iMeI_a" x1="3.793" x2="20.207" y1="3.793" y2="20.207" gradientUnits="userSpaceOnUse"><stop offset="0" stop-color="#fff" stop-opacity=".6"/><stop offset="1" stop-color="#fff" stop-opacity=".3"/></linearGradient><path fill="url(#O5mZXqOL4OeOM-A4iMeI_a)" d="M19,5V3c0-0.552-0.448-1-1-1s-1,0.448-1,1v2h-4V3c0-0.552-0.448-1-1-1s-1,0.448-1,1v2H7V3 c0-0.552-0.448-1-1-1S5,2.448,5,3v2C3.343,5,2,6.343,2,8v8c0,1.657,1.343,3,3,3v2c0,0.552,0.448,1,1,1s1-0.448,1-1v-2h4v2 c0,0.552,0.448,1,1,1s1-0.448,1-1v-2h4v2c0,0.552,0.448,1,1,1s1-0.448,1-1v-2c1.657,0,3-1.343,3-3V8C22,6.343,20.657,5,19,5z"/><linearGradient id="O5mZXqOL4OeOM-A4iMeI_b" x1="3.793" x2="20.207" y1="3.793" y2="20.207" gradientUnits="userSpaceOnUse"><stop offset="0" stop-color="#fff" stop-opacity=".6"/><stop offset=".493" stop-color="#fff" stop-opacity="0"/><stop offset=".997" stop-color="#fff" stop-opacity=".3"/></linearGradient><path fill="url(#O5mZXqOL4OeOM-A4iMeI_b)" d="M18,2.5c0.276,0,0.5,0.224,0.5,0.5v2v0.5 H19c1.379,0,2.5,1.121,2.5,2.5v8c0,1.379-1.121,2.5-2.5,2.5h-0.5V19v2c0,0.276-0.224,0.5-0.5,0.5s-0.5-0.224-0.5-0.5v-2v-0.5H17h-4 h-0.5V19v2c0,0.276-0.224,0.5-0.5,0.5s-0.5-0.224-0.5-0.5v-2v-0.5H11H7H6.5V19v2c0,0.276-0.224,0.5-0.5,0.5S5.5,21.276,5.5,21v-2 v-0.5H5c-1.379,0-2.5-1.121-2.5-2.5V8c0-1.379,1.121-2.5,2.5-2.5h0.5V5V3c0-0.276,0.224-0.5,0.5-0.5S6.5,2.724,6.5,3v2v0.5H7h4h0.5 V5V3c0-0.276,0.224-0.5,0.5-0.5s0.5,0.224,0.5,0.5v2v0.5H13h4h0.5V5V3C17.5,2.724,17.724,2.5,18,2.5 M18,2c-0.552,0-1,0.448-1,1v2 h-4V3c0-0.552-0.448-1-1-1s-1,0.448-1,1v2H7V3c0-0.552-0.448-1-1-1S5,2.448,5,3v2C3.343,5,2,6.343,2,8v8c0,1.657,1.343,3,3,3v2 c0,0.552,0.448,1,1,1s1-0.448,1-1v-2h4v2c0,0.552,0.448,1,1,1s1-0.448,1-1v-2h4v2c0,0.552,0.448,1,1,1s1-0.448,1-1v-2 c1.657,0,3-1.343,3-3V8c0-1.657-1.343-3-3-3V3C19,2.448,18.552,2,18,2L18,2z"/><linearGradient id="O5mZXqOL4OeOM-A4iMeI_c" x1="4.896" x2="7.104" y1="2.689" y2="4.896" gradientUnits="userSpaceOnUse"><stop offset="0" stop-color="#fff" stop-opacity=".6"/><stop offset="1" stop-color="#fff" stop-opacity=".3"/></linearGradient><path fill="url(#O5mZXqOL4OeOM-A4iMeI_c)" d="M6,2L6,2C5.448,2,5,2.448,5,3v2h2V3	C7,2.448,6.552,2,6,2z"/><linearGradient id="O5mZXqOL4OeOM-A4iMeI_d" x1="10.896" x2="13.104" y1="2.689" y2="4.896" gradientUnits="userSpaceOnUse"><stop offset="0" stop-color="#fff" stop-opacity=".6"/><stop offset="1" stop-color="#fff" stop-opacity=".3"/></linearGradient><path fill="url(#O5mZXqOL4OeOM-A4iMeI_d)" d="M12,2L12,2c-0.552,0-1,0.448-1,1v2h2V3	C13,2.448,12.552,2,12,2z"/><linearGradient id="O5mZXqOL4OeOM-A4iMeI_e" x1="16.896" x2="19.104" y1="2.689" y2="4.896" gradientUnits="userSpaceOnUse"><stop offset="0" stop-color="#fff" stop-opacity=".6"/><stop offset="1" stop-color="#fff" stop-opacity=".3"/></linearGradient><path fill="url(#O5mZXqOL4OeOM-A4iMeI_e)" d="M18,2L18,2c-0.552,0-1,0.448-1,1v2h2V3	C19,2.448,18.552,2,18,2z"/><linearGradient id="O5mZXqOL4OeOM-A4iMeI_f" x1="16.896" x2="19.104" y1="19.104" y2="21.311" gradientUnits="userSpaceOnUse"><stop offset="0" stop-color="#fff" stop-opacity=".6"/><stop offset="1" stop-color="#fff" stop-opacity=".3"/></linearGradient><path fill="url(#O5mZXqOL4OeOM-A4iMeI_f)" d="M18,22L18,22c0.552,0,1-0.448,1-1v-2h-2v2	C17,21.552,17.448,22,18,22z"/><linearGradient id="O5mZXqOL4OeOM-A4iMeI_g" x1="10.896" x2="13.104" y1="19.104" y2="21.311" gradientUnits="userSpaceOnUse"><stop offset="0" stop-color="#fff" stop-opacity=".6"/><stop offset="1" stop-color="#fff" stop-opacity=".3"/></linearGradient><path fill="url(#O5mZXqOL4OeOM-A4iMeI_g)" d="M12,22L12,22c0.552,0,1-0.448,1-1v-2h-2v2	C11,21.552,11.448,22,12,22z"/><linearGradient id="O5mZXqOL4OeOM-A4iMeI_h" x1="4.896" x2="7.104" y1="19.104" y2="21.311" gradientUnits="userSpaceOnUse"><stop offset="0" stop-color="#fff" stop-opacity=".6"/><stop offset="1" stop-color="#fff" stop-opacity=".3"/></linearGradient><path fill="url(#O5mZXqOL4OeOM-A4iMeI_h)" d="M6,22L6,22c0.552,0,1-0.448,1-1v-2H5v2	C5,21.552,5.448,22,6,22z"/><linearGradient id="O5mZXqOL4OeOM-A4iMeI_i" x1="5.586" x2="8.414" y1="12.586" y2="15.414" gradientUnits="userSpaceOnUse"><stop offset="0" stop-color="#fff" stop-opacity=".6"/><stop offset="1" stop-color="#fff" stop-opacity=".3"/></linearGradient><circle cx="7" cy="14" r="2" fill="url(#O5mZXqOL4OeOM-A4iMeI_i)"/><linearGradient id="O5mZXqOL4OeOM-A4iMeI_j" x1="16.439" x2="18.561" y1="8.439" y2="10.561" gradientUnits="userSpaceOnUse"><stop offset="0" stop-color="#fff" stop-opacity=".6"/><stop offset="1" stop-color="#fff" stop-opacity=".3"/></linearGradient><circle cx="17.5" cy="9.5" r="1.5" fill="url(#O5mZXqOL4OeOM-A4iMeI_j)"/></svg>