<svg xmlns="http://www.w3.org/2000/svg"  viewBox="0 0 24 24" width="48px" height="48px" baseProfile="basic"><path d="M19,20H5c-1.657,0-3-1.343-3-3V5l5-1l4,1h8c1.657,0,3,1.343,3,3v9C22,18.657,20.657,20,19,20z" opacity=".35"/><path d="M11,5H2V4c0-1.105,0.895-2,2-2h4.558c0.861,0,1.625,0.551,1.897,1.368L11,5z"/><path d="M6.144,10.356l1.508,1.542c0.212,0.217,0.572,0.062,0.572-0.246v-0.649h6.803C15.565,11.003,16,10.554,16,10l0,0	c0-0.554-0.435-1.003-0.972-1.003H8.225V8.348c0-0.308-0.361-0.463-0.572-0.246L6.144,9.644C5.952,9.84,5.952,10.16,6.144,10.356z"/><path d="M17.856,14.644l-1.508-1.542c-0.212-0.217-0.572-0.062-0.572,0.246v0.649H8.972C8.435,13.997,8,14.446,8,15l0,0	c0,0.554,0.435,1.003,0.972,1.003h6.803v0.649c0,0.308,0.361,0.463,0.572,0.246l1.508-1.542	C18.048,15.16,18.048,14.84,17.856,14.644z"/></svg>