<svg xmlns="http://www.w3.org/2000/svg"  viewBox="0 0 24 24" width="24px" height="24px" baseProfile="basic"><linearGradient id="p7_MCK9lWtQB1FOv0qRd_a" x1="3.879" x2="20.121" y1="3.879" y2="20.121" gradientUnits="userSpaceOnUse"><stop offset="0" stop-color="#fff" stop-opacity=".6"/><stop offset="1" stop-color="#fff" stop-opacity=".3"/></linearGradient><path fill="url(#p7_MCK9lWtQB1FOv0qRd_a)" d="M18,21H6c-1.657,0-3-1.343-3-3V6c0-1.657,1.343-3,3-3h12c1.657,0,3,1.343,3,3v12	C21,19.657,19.657,21,18,21z"/><linearGradient id="p7_MCK9lWtQB1FOv0qRd_b" x1="3.879" x2="20.121" y1="3.879" y2="20.121" gradientUnits="userSpaceOnUse"><stop offset="0" stop-color="#fff" stop-opacity=".6"/><stop offset=".493" stop-color="#fff" stop-opacity="0"/><stop offset=".997" stop-color="#fff" stop-opacity=".3"/></linearGradient><path fill="url(#p7_MCK9lWtQB1FOv0qRd_b)" d="M18,3.5c1.379,0,2.5,1.121,2.5,2.5v12c0,1.379-1.121,2.5-2.5,2.5H6	c-1.379,0-2.5-1.121-2.5-2.5V6c0-1.379,1.121-2.5,2.5-2.5H18 M18,3H6C4.343,3,3,4.343,3,6v12c0,1.657,1.343,3,3,3h12	c1.657,0,3-1.343,3-3V6C21,4.343,19.657,3,18,3L18,3z"/><linearGradient id="p7_MCK9lWtQB1FOv0qRd_c" x1="5.793" x2="12.207" y1="8.793" y2="15.207" gradientUnits="userSpaceOnUse"><stop offset="0" stop-color="#fff" stop-opacity=".7"/><stop offset=".519" stop-color="#fff" stop-opacity=".45"/><stop offset="1" stop-color="#fff" stop-opacity=".55"/></linearGradient><path fill="url(#p7_MCK9lWtQB1FOv0qRd_c)" d="M9,18c-0.553,0-1-0.448-1-1V7c0-0.552,0.447-1,1-1s1,0.448,1,1v10C10,17.552,9.553,18,9,18z"/><linearGradient id="p7_MCK9lWtQB1FOv0qRd_d" x1="11.793" x2="18.207" y1="8.793" y2="15.207" gradientUnits="userSpaceOnUse"><stop offset="0" stop-color="#fff" stop-opacity=".7"/><stop offset=".519" stop-color="#fff" stop-opacity=".45"/><stop offset="1" stop-color="#fff" stop-opacity=".55"/></linearGradient><path fill="url(#p7_MCK9lWtQB1FOv0qRd_d)" d="M15,18c-0.553,0-1-0.448-1-1V7c0-0.552,0.447-1,1-1s1,0.448,1,1v10C16,17.552,15.553,18,15,18	z"/></svg>