<svg xmlns="http://www.w3.org/2000/svg"  viewBox="0 0 24 24" width="48px" height="48px" baseProfile="basic"><linearGradient id="LGRInJ29H9_9bJQEj0JCHa" x1="6.755" x2="17.507" y1="2.124" y2="12.876" gradientUnits="userSpaceOnUse"><stop offset="0" stop-color="#fff" stop-opacity=".6"/><stop offset="1" stop-color="#fff" stop-opacity=".3"/></linearGradient><path fill="url(#LGRInJ29H9_9bJQEj0JCHa)" d="M21.906,6.523l-2.235-2.235C19.055,3.672,18,4.109,18,4.981V6H3.5C2.672,6,2,6.672,2,7.5	S2.672,9,3.5,9H18v1.019c0,0.872,1.055,1.309,1.672,0.692l2.235-2.235C22.446,7.937,22.446,7.063,21.906,6.523z"/><linearGradient id="LGRInJ29H9_9bJQEj0JCHb" x1="6.755" x2="17.507" y1="2.124" y2="12.876" gradientUnits="userSpaceOnUse"><stop offset="0" stop-color="#fff" stop-opacity=".6"/><stop offset=".493" stop-color="#fff" stop-opacity="0"/><stop offset=".997" stop-color="#fff" stop-opacity=".3"/></linearGradient><path fill="url(#LGRInJ29H9_9bJQEj0JCHb)" d="M18.986,4.5c0.086,0,0.214,0.025,0.332,0.142l2.235,2.235	c0.166,0.166,0.258,0.388,0.258,0.623s-0.092,0.457-0.258,0.623l-2.235,2.235c-0.094,0.094-0.206,0.142-0.332,0.142	c-0.239,0-0.486-0.18-0.486-0.481V9V8.5H18H3.5c-0.551,0-1-0.449-1-1s0.449-1,1-1H18h0.5V6V4.981C18.5,4.68,18.747,4.5,18.986,4.5 M18.986,4C18.483,4,18,4.391,18,4.981V6H3.5C2.672,6,2,6.672,2,7.5S2.672,9,3.5,9H18v1.019C18,10.609,18.483,11,18.986,11	c0.241,0,0.486-0.089,0.685-0.289l2.235-2.235c0.539-0.539,0.539-1.414,0-1.953l-2.235-2.235C19.472,4.089,19.227,4,18.986,4	L18.986,4z"/><linearGradient id="LGRInJ29H9_9bJQEj0JCHc" x1="6.484" x2="17.516" y1="11.98" y2="23.011" gradientUnits="userSpaceOnUse"><stop offset="0" stop-color="#fff" stop-opacity=".6"/><stop offset="1" stop-color="#fff" stop-opacity=".3"/></linearGradient><path fill="url(#LGRInJ29H9_9bJQEj0JCHc)" d="M22,17.5c0-1.381-1.119-2.5-2.5-2.5c-1.209,0-2.218,0.859-2.45,2H14.45	c-0.232-1.141-1.24-2-2.45-2s-2.218,0.859-2.45,2H6.95c-0.232-1.141-1.24-2-2.45-2C3.119,15,2,16.119,2,17.5	c0,1.277,0.961,2.319,2.198,2.47C4.295,19.99,4.396,20,4.5,20h15c0.104,0,0.205-0.01,0.302-0.03C21.039,19.819,22,18.777,22,17.5z"/><linearGradient id="LGRInJ29H9_9bJQEj0JCHd" x1="6.484" x2="17.516" y1="11.98" y2="23.011" gradientUnits="userSpaceOnUse"><stop offset="0" stop-color="#fff" stop-opacity=".6"/><stop offset=".493" stop-color="#fff" stop-opacity="0"/><stop offset=".997" stop-color="#fff" stop-opacity=".3"/></linearGradient><path fill="url(#LGRInJ29H9_9bJQEj0JCHd)" d="M19.5,15.5c1.103,0,2,0.897,2,2c0,1.003-0.756,1.851-1.798,1.98	c-0.066,0.013-0.134,0.02-0.202,0.02h-15c-0.068,0-0.136-0.007-0.242-0.027C3.256,19.351,2.5,18.503,2.5,17.5c0-1.103,0.897-2,2-2	c0.947,0,1.771,0.673,1.96,1.599L6.541,17.5H6.95H9.55h0.409l0.081-0.401C10.229,16.173,11.053,15.5,12,15.5s1.771,0.673,1.96,1.599	l0.081,0.401h0.409h2.601h0.409l0.081-0.401C17.729,16.173,18.553,15.5,19.5,15.5 M19.5,15c-1.209,0-2.218,0.859-2.45,2H14.45	c-0.232-1.141-1.24-2-2.45-2s-2.218,0.859-2.45,2H6.95c-0.232-1.141-1.24-2-2.45-2C3.119,15,2,16.119,2,17.5	c0,1.277,0.961,2.319,2.198,2.47C4.295,19.99,4.396,20,4.5,20h15c0.104,0,0.205-0.01,0.302-0.03C21.039,19.819,22,18.777,22,17.5	C22,16.119,20.881,15,19.5,15L19.5,15z"/><linearGradient id="LGRInJ29H9_9bJQEj0JCHe" x1="2.732" x2="6.268" y1="15.732" y2="19.268" gradientUnits="userSpaceOnUse"><stop offset="0" stop-color="#fff" stop-opacity=".7"/><stop offset=".519" stop-color="#fff" stop-opacity=".45"/><stop offset="1" stop-color="#fff" stop-opacity=".55"/></linearGradient><circle cx="4.5" cy="17.5" r="2.5" fill="url(#LGRInJ29H9_9bJQEj0JCHe)"/><linearGradient id="LGRInJ29H9_9bJQEj0JCHf" x1="10.232" x2="13.768" y1="15.732" y2="19.268" gradientUnits="userSpaceOnUse"><stop offset="0" stop-color="#fff" stop-opacity=".7"/><stop offset=".519" stop-color="#fff" stop-opacity=".45"/><stop offset="1" stop-color="#fff" stop-opacity=".55"/></linearGradient><circle cx="12" cy="17.5" r="2.5" fill="url(#LGRInJ29H9_9bJQEj0JCHf)"/><linearGradient id="LGRInJ29H9_9bJQEj0JCHg" x1="17.732" x2="21.268" y1="15.732" y2="19.268" gradientUnits="userSpaceOnUse"><stop offset="0" stop-color="#fff" stop-opacity=".7"/><stop offset=".519" stop-color="#fff" stop-opacity=".45"/><stop offset="1" stop-color="#fff" stop-opacity=".55"/></linearGradient><circle cx="19.5" cy="17.5" r="2.5" fill="url(#LGRInJ29H9_9bJQEj0JCHg)"/></svg>