<svg xmlns="http://www.w3.org/2000/svg"  viewBox="0 0 24 24" width="48px" height="48px" baseProfile="basic"><linearGradient id="Mqt7ibyhpUrhijQ0NHqNKa" x1="17.232" x2="20.768" y1="3.732" y2="7.268" gradientUnits="userSpaceOnUse"><stop offset="0" stop-color="#fff" stop-opacity=".6"/><stop offset="1" stop-color="#fff" stop-opacity=".3"/></linearGradient><circle cx="19" cy="5.5" r="2.5" fill="url(#Mqt7ibyhpUrhijQ0NHqNKa)"/><linearGradient id="Mqt7ibyhpUrhijQ0NHqNKb" x1="17.232" x2="20.768" y1="3.732" y2="7.268" gradientUnits="userSpaceOnUse"><stop offset="0" stop-color="#fff" stop-opacity=".6"/><stop offset=".493" stop-color="#fff" stop-opacity="0"/><stop offset=".997" stop-color="#fff" stop-opacity=".3"/></linearGradient><path fill="url(#Mqt7ibyhpUrhijQ0NHqNKb)" d="M19,3.5c1.103,0,2,0.897,2,2s-0.897,2-2,2s-2-0.897-2-2S17.897,3.5,19,3.5 M19,3	c-1.381,0-2.5,1.119-2.5,2.5C16.5,6.881,17.619,8,19,8s2.5-1.119,2.5-2.5C21.5,4.119,20.381,3,19,3L19,3z"/><linearGradient id="Mqt7ibyhpUrhijQ0NHqNKc" x1="7.086" x2="16.914" y1="10.672" y2="20.5" gradientUnits="userSpaceOnUse"><stop offset="0" stop-color="#fff" stop-opacity=".6"/><stop offset="1" stop-color="#fff" stop-opacity=".3"/></linearGradient><path fill="url(#Mqt7ibyhpUrhijQ0NHqNKc)" d="M20,9h-2c-1.657,0-3,1.343-3,3v0.779C14.468,12.3,13.772,12,13,12h-2c-1.657,0-3,1.343-3,3	v0.779C7.468,15.3,6.772,15,6,15H4c-1.657,0-3,1.343-3,3v2c0,0.552,0.448,1,1,1h6c0.552,0,1-0.448,1-1v-2h6c0.552,0,1-0.448,1-1v-2	h6c0.552,0,1-0.448,1-1v-2C23,10.343,21.657,9,20,9z"/><linearGradient id="Mqt7ibyhpUrhijQ0NHqNKd" x1="7.086" x2="16.914" y1="10.672" y2="20.5" gradientUnits="userSpaceOnUse"><stop offset="0" stop-color="#fff" stop-opacity=".6"/><stop offset=".493" stop-color="#fff" stop-opacity="0"/><stop offset=".997" stop-color="#fff" stop-opacity=".3"/></linearGradient><path fill="url(#Mqt7ibyhpUrhijQ0NHqNKd)" d="M20,9.5c1.379,0,2.5,1.122,2.5,2.5v2c0,0.276-0.224,0.5-0.5,0.5h-6h-0.5V15v2	c0,0.276-0.224,0.5-0.5,0.5H9H8.5V18v2c0,0.276-0.224,0.5-0.5,0.5H2c-0.276,0-0.5-0.224-0.5-0.5v-2c0-1.378,1.121-2.5,2.5-2.5h2	c0.609,0,1.2,0.231,1.665,0.65L8.5,16.902v-1.123V15c0-1.378,1.121-2.5,2.5-2.5h2c0.609,0,1.2,0.231,1.665,0.65l0.835,0.752v-1.123	V12c0-1.378,1.121-2.5,2.5-2.5H20 M20,9h-2c-1.657,0-3,1.343-3,3v0.779C14.468,12.3,13.772,12,13,12h-2c-1.657,0-3,1.343-3,3v0.779	C7.468,15.3,6.772,15,6,15H4c-1.657,0-3,1.343-3,3v2c0,0.552,0.448,1,1,1h6c0.552,0,1-0.448,1-1v-2h6c0.552,0,1-0.448,1-1v-2h6	c0.552,0,1-0.448,1-1v-2C23,10.343,21.657,9,20,9L20,9z"/><linearGradient id="Mqt7ibyhpUrhijQ0NHqNKe" x1="10.232" x2="13.768" y1="6.732" y2="10.268" gradientUnits="userSpaceOnUse"><stop offset="0" stop-color="#fff" stop-opacity=".6"/><stop offset="1" stop-color="#fff" stop-opacity=".3"/></linearGradient><circle cx="12" cy="8.5" r="2.5" fill="url(#Mqt7ibyhpUrhijQ0NHqNKe)"/><linearGradient id="Mqt7ibyhpUrhijQ0NHqNKf" x1="10.232" x2="13.768" y1="6.732" y2="10.268" gradientUnits="userSpaceOnUse"><stop offset="0" stop-color="#fff" stop-opacity=".6"/><stop offset=".493" stop-color="#fff" stop-opacity="0"/><stop offset=".997" stop-color="#fff" stop-opacity=".3"/></linearGradient><path fill="url(#Mqt7ibyhpUrhijQ0NHqNKf)" d="M12,6.5c1.103,0,2,0.897,2,2s-0.897,2-2,2s-2-0.897-2-2S10.897,6.5,12,6.5 M12,6	c-1.381,0-2.5,1.119-2.5,2.5c0,1.381,1.119,2.5,2.5,2.5s2.5-1.119,2.5-2.5C14.5,7.119,13.381,6,12,6L12,6z"/><linearGradient id="Mqt7ibyhpUrhijQ0NHqNKg" x1="3.232" x2="6.768" y1="9.732" y2="13.268" gradientUnits="userSpaceOnUse"><stop offset="0" stop-color="#fff" stop-opacity=".6"/><stop offset="1" stop-color="#fff" stop-opacity=".3"/></linearGradient><circle cx="5" cy="11.5" r="2.5" fill="url(#Mqt7ibyhpUrhijQ0NHqNKg)"/><linearGradient id="Mqt7ibyhpUrhijQ0NHqNKh" x1="3.232" x2="6.768" y1="9.732" y2="13.268" gradientUnits="userSpaceOnUse"><stop offset="0" stop-color="#fff" stop-opacity=".6"/><stop offset=".493" stop-color="#fff" stop-opacity="0"/><stop offset=".997" stop-color="#fff" stop-opacity=".3"/></linearGradient><path fill="url(#Mqt7ibyhpUrhijQ0NHqNKh)" d="M5,9.5c1.103,0,2,0.897,2,2s-0.897,2-2,2s-2-0.897-2-2S3.897,9.5,5,9.5 M5,9	c-1.381,0-2.5,1.119-2.5,2.5C2.5,12.881,3.619,14,5,14s2.5-1.119,2.5-2.5C7.5,10.119,6.381,9,5,9L5,9z"/></svg>