<svg xmlns="http://www.w3.org/2000/svg"  viewBox="0 0 24 24" width="48px" height="48px" baseProfile="basic"><linearGradient id="X8C68vnEQAdYHcKjO2BFNa" x1="5.287" x2="18.713" y1="4.032" y2="17.459" gradientUnits="userSpaceOnUse"><stop offset="0" stop-color="#fff" stop-opacity=".6"/><stop offset="1" stop-color="#fff" stop-opacity=".3"/></linearGradient><path fill="url(#X8C68vnEQAdYHcKjO2BFNa)" d="M3.04,9.98C3.068,5.031,7.052,1.02,12,1.02s8.932,4.012,8.96,8.96	c0.028,4.914-4.398,9.778-7.039,12.241c-1.086,1.013-2.755,1.013-3.841,0C7.438,19.758,3.012,14.893,3.04,9.98z"/><linearGradient id="X8C68vnEQAdYHcKjO2BFNb" x1="5.287" x2="18.713" y1="4.032" y2="17.459" gradientUnits="userSpaceOnUse"><stop offset="0" stop-color="#fff" stop-opacity=".6"/><stop offset=".493" stop-color="#fff" stop-opacity="0"/><stop offset=".997" stop-color="#fff" stop-opacity=".3"/></linearGradient><path fill="url(#X8C68vnEQAdYHcKjO2BFNb)" d="M12,1.52c4.638,0,8.433,3.796,8.46,8.463c0.027,4.722-4.299,9.466-6.88,11.873	c-0.432,0.403-0.993,0.625-1.58,0.625s-1.147-0.222-1.58-0.625c-2.581-2.407-6.907-7.151-6.88-11.873	C3.567,5.316,7.362,1.52,12,1.52 M12,1.02c-4.948,0-8.932,4.012-8.96,8.96c-0.028,4.914,4.398,9.778,7.039,12.241	c0.543,0.506,1.232,0.759,1.921,0.759s1.378-0.253,1.921-0.759c2.641-2.463,7.068-7.328,7.039-12.241	C20.932,5.031,16.948,1.02,12,1.02L12,1.02z"/><linearGradient id="X8C68vnEQAdYHcKjO2BFNc" x1="7.109" x2="16.891" y1="5.109" y2="14.891" gradientUnits="userSpaceOnUse"><stop offset="0" stop-color="#fff" stop-opacity=".7"/><stop offset=".519" stop-color="#fff" stop-opacity=".45"/><stop offset="1" stop-color="#fff" stop-opacity=".55"/></linearGradient><path fill="url(#X8C68vnEQAdYHcKjO2BFNc)" d="M14,10c0,1.105-0.895,2-2,2s-2-0.895-2-2s0.895-2,2-2S14,8.895,14,10z M17.727,14.023	c1.693-2.407,1.693-5.64,0-8.047c-0.478-0.678-1.413-0.841-2.09-0.363c-0.678,0.477-0.84,1.412-0.363,2.09	c0.967,1.374,0.967,3.22,0,4.594c-0.477,0.678-0.314,1.613,0.363,2.09c0.263,0.185,0.563,0.273,0.862,0.273	C16.971,14.66,17.435,14.438,17.727,14.023z M8.363,14.387c0.678-0.477,0.84-1.412,0.363-2.09c-0.967-1.374-0.967-3.22,0-4.594	c0.477-0.678,0.314-1.613-0.363-2.09c-0.678-0.478-1.612-0.315-2.09,0.363c-1.693,2.407-1.693,5.64,0,8.047	c0.292,0.415,0.756,0.637,1.228,0.637C7.8,14.66,8.101,14.572,8.363,14.387z"/></svg>