<svg xmlns="http://www.w3.org/2000/svg"  viewBox="0 0 24 24" width="48px" height="48px" baseProfile="basic"><linearGradient id="27Po7suMLY09MoPOIBLGca" x1="3.274" x2="21.931" y1="4.483" y2="23.14" gradientUnits="userSpaceOnUse"><stop offset="0" stop-color="#fff" stop-opacity=".6"/><stop offset="1" stop-color="#fff" stop-opacity=".3"/></linearGradient><path fill="url(#27Po7suMLY09MoPOIBLGca)" d="M22,15.023V9c0-1.1-0.9-2-2-2h-2V6c0-1.657-1.343-3-3-3H6C4.343,3,3,4.343,3,6v12	c0,1.657,1.343,3,3,3h8.422c0.772,1.764,2.529,3,4.578,3c2.761,0,5-2.239,5-5C24,17.37,23.208,15.935,22,15.023z"/><linearGradient id="27Po7suMLY09MoPOIBLGcb" x1="3.274" x2="21.931" y1="4.483" y2="23.14" gradientUnits="userSpaceOnUse"><stop offset="0" stop-color="#fff" stop-opacity=".6"/><stop offset=".493" stop-color="#fff" stop-opacity="0"/><stop offset=".997" stop-color="#fff" stop-opacity=".3"/></linearGradient><path fill="url(#27Po7suMLY09MoPOIBLGcb)" d="M15,3.5c1.379,0,2.5,1.122,2.5,2.5v1v0.5H18h2c0.827,0,1.5,0.673,1.5,1.5v6.023v0.249	l0.199,0.15C22.843,16.287,23.5,17.591,23.5,19c0,2.481-2.019,4.5-4.5,4.5c-1.785,0-3.402-1.06-4.12-2.7l-0.131-0.3h-0.327H6	c-1.379,0-2.5-1.122-2.5-2.5V6c0-1.378,1.121-2.5,2.5-2.5H15 M15,3H6C4.343,3,3,4.343,3,6v12c0,1.657,1.343,3,3,3h8.422	c0.772,1.764,2.529,3,4.578,3c2.761,0,5-2.239,5-5c0-1.63-0.792-3.065-2-3.977V9c0-1.1-0.9-2-2-2h-2V6C18,4.343,16.657,3,15,3L15,3z"/><linearGradient id="27Po7suMLY09MoPOIBLGcc" x1="15.465" x2="22.535" y1="15.465" y2="22.535" gradientUnits="userSpaceOnUse"><stop offset="0" stop-color="#fff" stop-opacity=".7"/><stop offset=".519" stop-color="#fff" stop-opacity=".45"/><stop offset="1" stop-color="#fff" stop-opacity=".55"/></linearGradient><path fill="url(#27Po7suMLY09MoPOIBLGcc)" d="M19,14c-2.76,0-5,2.24-5,5s2.24,5,5,5s5-2.24,5-5S21.76,14,19,14z M21.95,19.68	c-0.07,0.29-0.18,0.57-0.33,0.83c-0.41,0.7-1.06,1.2-1.84,1.41c-0.26,0.07-0.52,0.1-0.78,0.1c-0.53,0-1.04-0.13-1.51-0.4	c-1.44-0.84-1.94-2.69-1.11-4.13c0.41-0.7,1.06-1.2,1.84-1.41c0.56-0.15,1.13-0.13,1.67,0.04l0.26-0.46	c0.21-0.36,0.74-0.32,0.9,0.06l0.61,1.49c0.13,0.31-0.07,0.65-0.39,0.69l-1.6,0.21c-0.42,0.06-0.71-0.38-0.5-0.74l0.2-0.35	c-0.29-0.06-0.6-0.05-0.89,0.03c-0.52,0.14-0.96,0.47-1.23,0.94c-0.56,0.96-0.23,2.2,0.74,2.76c0.96,0.56,2.2,0.23,2.76-0.74	c0.1-0.17,0.18-0.36,0.22-0.55c0.06-0.27,0.33-0.44,0.6-0.38C21.84,19.14,22.01,19.41,21.95,19.68z"/><linearGradient id="27Po7suMLY09MoPOIBLGcd" x1="5.867" x2="13.967" y1="8.012" y2="16.113" gradientUnits="userSpaceOnUse"><stop offset="0" stop-color="#fff" stop-opacity=".7"/><stop offset=".519" stop-color="#fff" stop-opacity=".45"/><stop offset="1" stop-color="#fff" stop-opacity=".55"/></linearGradient><path fill="url(#27Po7suMLY09MoPOIBLGcd)" d="M12.68,16c-0.3,0.62-0.51,1.29-0.6,2H7c-0.55,0-1-0.45-1-1s0.45-1,1-1H12.68z M13.5,7	c-0.386,0-5.614,0-6,0C6.672,7,6,7.672,6,8.5S6.672,10,7.5,10c0.386,0,5.614,0,6,0c0.828,0,1.5-0.672,1.5-1.5S14.328,7,13.5,7z M15,13L15,13c0-0.552-0.448-1-1-1H7c-0.552,0-1,0.448-1,1v0c0,0.552,0.448,1,1,1h7C14.552,14,15,13.552,15,13z"/></svg>