<svg xmlns="http://www.w3.org/2000/svg" viewBox="-2 -1 28 28" width="16" height="16"><path d="M15.5,5c-1.616,0-3,3-4,3S9.094,7,8,7c-1,0-5,2.352-5,6h18C21,11,18.091,5,15.5,5z" fill="#D9D9D9"/><path d="M3,18v2c0,1.105,0.895,2,2,2h14c1.105,0,2-0.895,2-2v-2H3z" fill="#969696"/><path d="M16,10.001c-0.2,0-0.402-0.06-0.579-0.186c-0.449-0.319-0.555-0.944-0.234-1.395l2.441-3.433c0.318-0.449,0.941-0.558,1.395-0.234c0.449,0.319,0.555,0.944,0.234,1.395L16.815,9.58C16.621,9.854,16.312,10.001,16,10.001z" fill="#969696"/><path d="M17.805,2.482L17.33,3.146c-0.178,0.249-0.25,0.558-0.199,0.859l0.489,2.942l2.942-0.489c0.302-0.05,0.571-0.218,0.749-0.467l0.475-0.664c0.37-0.518,0.251-1.238-0.267-1.608l-2.105-1.505C18.895,1.845,18.175,1.965,17.805,2.482z" fill="#969696"/><path d="M21,12H3c-1.105,0-2,0.895-2,2v2c0,1.657,1.343,3,3,3h16c1.657,0,3-1.343,3-3v-2C23,12.895,22.105,12,21,12z" fill="#969696"/></svg>
