<svg xmlns="http://www.w3.org/2000/svg"  viewBox="0 0 24 24" width="24px" height="24px" baseProfile="basic"><linearGradient id="c5EP5-nBvaDJnN3G_r-4fa" x1="6.877" x2="20.912" y1="6.881" y2="20.916" gradientUnits="userSpaceOnUse"><stop offset="0" stop-color="#fff" stop-opacity=".6"/><stop offset="1" stop-color="#fff" stop-opacity=".3"/></linearGradient><path fill="url(#c5EP5-nBvaDJnN3G_r-4fa)" d="M21,12h-0.153c-0.34-1.364-1.23-3.31-2.333-4.808l0.317-0.446l1.73-0.288 c0.302-0.05,0.571-0.218,0.749-0.467l0.475-0.664c0.37-0.518,0.251-1.238-0.267-1.608l-2.105-1.505 c-0.518-0.37-1.238-0.251-1.608,0.267L17.33,3.146c-0.178,0.249-0.25,0.558-0.199,0.859l0.227,1.363l-0.233,0.327 C16.588,5.268,16.038,5,15.5,5c-1.616,0-3,3-4,3S9.094,7,8,7c-0.905,0-4.257,1.93-4.888,5H3c-1.105,0-2,0.895-2,2v2 c0,1.304,0.837,2.403,2,2.816V20c0,1.105,0.895,2,2,2h14c1.105,0,2-0.895,2-2v-1.184c1.163-0.413,2-1.512,2-2.816v-2 C23,12.895,22.105,12,21,12z"/><linearGradient id="c5EP5-nBvaDJnN3G_r-4fb" x1="6.877" x2="20.912" y1="6.881" y2="20.916" gradientUnits="userSpaceOnUse"><stop offset="0" stop-color="#fff" stop-opacity=".6"/><stop offset=".493" stop-color="#fff" stop-opacity="0"/><stop offset=".997" stop-color="#fff" stop-opacity=".3"/></linearGradient><path fill="url(#c5EP5-nBvaDJnN3G_r-4fb)" d="M18.743,2.5L18.743,2.5c0.136,0,0.267,0.042,0.379,0.122l2.105,1.505 c0.142,0.101,0.236,0.252,0.264,0.424c0.029,0.172-0.012,0.345-0.113,0.487l-0.475,0.664c-0.101,0.142-0.252,0.236-0.424,0.264 l-1.73,0.288l-0.205,0.034l-0.12,0.169l-0.317,0.446l-0.21,0.295l0.215,0.291c1.143,1.553,1.954,3.446,2.25,4.633l0.095,0.379 h0.391H21c0.827,0,1.5,0.673,1.5,1.5v2c0,1.048-0.67,1.991-1.667,2.345L20.5,18.463v0.353V20c0,0.827-0.673,1.5-1.5,1.5H5 c-0.827,0-1.5-0.673-1.5-1.5v-1.184v-0.353l-0.333-0.118C2.17,17.991,1.5,17.048,1.5,16v-2c0-0.827,0.673-1.5,1.5-1.5h0.112H3.52 l0.082-0.399C4.181,9.282,7.309,7.5,8,7.5c0.461,0,1.059,0.244,1.638,0.48C10.265,8.236,10.913,8.5,11.5,8.5 c0.665,0,1.24-0.649,1.905-1.401C14.036,6.387,14.82,5.5,15.5,5.5c0.383,0,0.825,0.197,1.313,0.587l0.413,0.329l0.306-0.43 l0.233-0.327l0.12-0.168l-0.034-0.204l-0.227-1.363c-0.029-0.172,0.012-0.345,0.113-0.487l0.475-0.664 C18.334,2.602,18.533,2.5,18.743,2.5 M18.744,2c-0.359,0-0.714,0.168-0.939,0.482L17.33,3.146c-0.178,0.249-0.25,0.558-0.199,0.859 l0.227,1.363l-0.233,0.327C16.588,5.268,16.038,5,15.5,5c-1.616,0-3,3-4,3S9.094,7,8,7c-0.905,0-4.257,1.93-4.888,5H3 c-1.105,0-2,0.895-2,2v2c0,1.304,0.837,2.403,2,2.816V20c0,1.105,0.895,2,2,2h14c1.105,0,2-0.895,2-2v-1.184 c1.163-0.413,2-1.512,2-2.816v-2c0-1.105-0.895-2-2-2h-0.153c-0.34-1.364-1.23-3.31-2.333-4.808l0.317-0.446l1.73-0.288 c0.302-0.05,0.571-0.218,0.749-0.467l0.475-0.664c0.37-0.518,0.251-1.238-0.267-1.608l-2.105-1.505C19.21,2.07,18.975,2,18.744,2 L18.744,2z"/><linearGradient id="c5EP5-nBvaDJnN3G_r-4fc" x1="7.514" x2="17.057" y1="6.244" y2="15.787" gradientUnits="userSpaceOnUse"><stop offset="0" stop-color="#fff" stop-opacity=".7"/><stop offset=".519" stop-color="#fff" stop-opacity=".45"/><stop offset="1" stop-color="#fff" stop-opacity=".55"/></linearGradient><path fill="url(#c5EP5-nBvaDJnN3G_r-4fc)" d="M20.844,12c-0.34-1.363-1.225-3.308-2.329-4.808L16.815,9.58	c-0.194,0.274-0.503,0.421-0.815,0.421c-0.2,0-0.402-0.06-0.579-0.186c-0.449-0.319-0.555-0.944-0.234-1.395l1.938-2.725	C16.588,5.268,16.038,5,15.5,5c-1.616,0-3,3-4,3S9.094,7,8,7c-0.905,0-4.257,1.93-4.888,5H20.844z"/></svg>