<svg width="174" height="174" viewBox="0 0 174 174" fill="none" xmlns="http://www.w3.org/2000/svg">
<path fill-rule="evenodd" clip-rule="evenodd" d="M31.5271 40.3647C31.5271 37.2658 33.3133 34.4444 36.1145 33.1189L64.4604 19.7059C75.4706 14.4959 80.9758 11.8909 86.8577 11.8909C92.7397 11.8909 98.2448 14.4959 109.255 19.7059L137.601 33.1189C140.402 34.4444 142.188 37.2658 142.188 40.3647C142.188 44.7918 138.593 48.3807 134.166 48.3807C129.732 48.3807 126.131 51.9753 126.131 56.4094V70.372C126.131 72.6867 128.008 74.5632 130.322 74.5632C132.637 74.5632 134.514 76.4397 134.514 78.7545V81.1087C134.514 84.7237 131.583 87.6543 127.968 87.6543H45.7463C42.1313 87.6543 39.2008 84.7237 39.2008 81.1087V78.7552C39.2008 76.44 41.0776 74.5632 43.3928 74.5632C45.708 74.5632 47.5848 72.6864 47.5848 70.3712V56.4095C47.5848 51.9753 43.9837 48.3807 39.5495 48.3807C35.1224 48.3807 31.5271 44.7918 31.5271 40.3647Z" fill="#E2E7E9"/>
<rect x="60.5227" y="43.4287" width="52.5176" height="10.8566" rx="5.42828" fill="white"/>
<path fill-rule="evenodd" clip-rule="evenodd" d="M134.513 80.2369C134.513 76.6219 131.583 73.6914 127.968 73.6914H45.7462C42.1312 73.6914 39.2007 76.6219 39.2007 80.2369V83.3792C39.2007 85.2588 40.7244 86.7824 42.6039 86.7824C44.7344 86.7824 46.341 88.7178 45.949 90.8119L37.8241 134.209C37.3137 136.935 34.9337 138.911 32.1602 138.911C28.9778 138.911 26.3979 141.491 26.3979 144.673V145.457C26.3979 149.072 29.3285 152.002 32.9435 152.002H140.772C144.387 152.002 147.317 149.072 147.317 145.457V144.674C147.317 141.491 144.737 138.911 141.555 138.911C138.781 138.911 136.401 136.935 135.89 134.209L127.765 90.8117C127.373 88.7177 128.98 86.7824 131.11 86.7824C132.99 86.7824 134.513 85.2589 134.513 83.3794V80.2369Z" fill="#B4C1C7"/>
</svg>
