<svg xmlns="http://www.w3.org/2000/svg"  viewBox="0 0 24 24" width="24px" height="24px" baseProfile="basic"><linearGradient id="Fozw4UBqqpt6MygoRK81qa" x1="5.636" x2="18.364" y1="6.636" y2="19.364" gradientUnits="userSpaceOnUse"><stop offset="0" stop-color="#fff" stop-opacity=".6"/><stop offset="1" stop-color="#fff" stop-opacity=".3"/></linearGradient><circle cx="12" cy="13" r="9" fill="url(#Fozw4UBqqpt6MygoRK81qa)"/><linearGradient id="Fozw4UBqqpt6MygoRK81qb" x1="5.636" x2="18.364" y1="6.636" y2="19.364" gradientUnits="userSpaceOnUse"><stop offset="0" stop-color="#fff" stop-opacity=".6"/><stop offset=".493" stop-color="#fff" stop-opacity="0"/><stop offset=".997" stop-color="#fff" stop-opacity=".3"/></linearGradient><path fill="url(#Fozw4UBqqpt6MygoRK81qb)" d="M12,4.5c4.687,0,8.5,3.813,8.5,8.5 s-3.813,8.5-8.5,8.5S3.5,17.687,3.5,13S7.313,4.5,12,4.5 M12,4c-4.971,0-9,4.029-9,9s4.029,9,9,9s9-4.029,9-9S16.971,4,12,4L12,4z"/><linearGradient id="Fozw4UBqqpt6MygoRK81qc" x1="7.063" x2="13.414" y1="8.063" y2="14.414" gradientUnits="userSpaceOnUse"><stop offset="0" stop-color="#fff" stop-opacity=".7"/><stop offset=".519" stop-color="#fff" stop-opacity=".45"/><stop offset="1" stop-color="#fff" stop-opacity=".55"/></linearGradient><path fill="url(#Fozw4UBqqpt6MygoRK81qc)" d="M10.586,14.414	c-0.442-0.442-2.193-3.098-3.631-5.322C6.473,8.347,7.347,7.473,8.092,7.954c2.224,1.438,4.88,3.19,5.322,3.631	c0.781,0.781,0.781,2.047,0,2.828C12.633,15.195,11.367,15.195,10.586,14.414z"/><g><linearGradient id="Fozw4UBqqpt6MygoRK81qd" x1="10.189" x2="13.811" y1=".689" y2="4.311" gradientUnits="userSpaceOnUse"><stop offset="0" stop-color="#fff" stop-opacity=".6"/><stop offset="1" stop-color="#fff" stop-opacity=".3"/></linearGradient><path fill="url(#Fozw4UBqqpt6MygoRK81qd)" d="M13.5,1c-0.386,0-2.614,0-3,0 C9.672,1,9,1.672,9,2.5S9.672,4,10.5,4c0.386,0,2.614,0,3,0C14.328,4,15,3.328,15,2.5S14.328,1,13.5,1z"/><linearGradient id="Fozw4UBqqpt6MygoRK81qe" x1="9" x2="15" y1="2.5" y2="2.5" gradientUnits="userSpaceOnUse"><stop offset="0" stop-color="#fff" stop-opacity=".6"/><stop offset=".493" stop-color="#fff" stop-opacity="0"/><stop offset=".997" stop-color="#fff" stop-opacity=".3"/></linearGradient><path fill="url(#Fozw4UBqqpt6MygoRK81qe)" d="M13.5,1.5c0.551,0,1,0.449,1,1 s-0.449,1-1,1h-3c-0.551,0-1-0.449-1-1s0.449-1,1-1H13.5 M13.5,1c-0.386,0-2.614,0-3,0C9.672,1,9,1.672,9,2.5S9.672,4,10.5,4 c0.386,0,2.614,0,3,0C14.328,4,15,3.328,15,2.5S14.328,1,13.5,1L13.5,1z"/></g><g><linearGradient id="Fozw4UBqqpt6MygoRK81qf" x1="17.732" x2="20.561" y1="4.439" y2="7.268" gradientUnits="userSpaceOnUse"><stop offset="0" stop-color="#fff" stop-opacity=".6"/><stop offset="1" stop-color="#fff" stop-opacity=".3"/></linearGradient><path fill="url(#Fozw4UBqqpt6MygoRK81qf)" d="M20.561,5.146 c-0.273-0.273-0.434-0.434-0.707-0.707c-0.586-0.586-1.536-0.586-2.121,0s-0.586,1.536,0,2.121 c0.273,0.273,0.434,0.434,0.707,0.707c0.586,0.586,1.536,0.586,2.121,0C21.146,6.682,21.146,5.732,20.561,5.146z"/><linearGradient id="Fozw4UBqqpt6MygoRK81qg" x1="17.293" x2="21" y1="5.854" y2="5.854" gradientUnits="userSpaceOnUse"><stop offset="0" stop-color="#fff" stop-opacity=".6"/><stop offset=".493" stop-color="#fff" stop-opacity="0"/><stop offset=".997" stop-color="#fff" stop-opacity=".3"/></linearGradient><path fill="url(#Fozw4UBqqpt6MygoRK81qg)" d="M18.793,4.5 c0.267,0,0.518,0.104,0.707,0.293l0.393,0.393L20.207,5.5c0.39,0.39,0.39,1.024,0,1.414c-0.189,0.189-0.44,0.293-0.707,0.293 s-0.518-0.104-0.707-0.293l-0.354-0.354l-0.354-0.354c-0.39-0.39-0.39-1.024,0-1.414C18.275,4.604,18.526,4.5,18.793,4.5 M18.793,4c-0.384,0-0.768,0.146-1.061,0.439c-0.586,0.586-0.586,1.536,0,2.121c0.273,0.273,0.434,0.434,0.707,0.707 c0.293,0.293,0.677,0.439,1.061,0.439s0.768-0.146,1.061-0.439c0.586-0.586,0.586-1.536,0-2.121 c-0.273-0.273-0.434-0.434-0.707-0.707C19.561,4.146,19.177,4,18.793,4L18.793,4z"/></g></svg>