<svg xmlns="http://www.w3.org/2000/svg"  viewBox="0 0 24 24" width="48px" height="48px" baseProfile="basic"><linearGradient id="zaaRGm7Mb093s9LFqRqM2a" x1="6.586" x2="17.414" y1=".586" y2="11.414" gradientUnits="userSpaceOnUse"><stop offset="0" stop-color="#fff" stop-opacity=".6"/><stop offset="1" stop-color="#fff" stop-opacity=".3"/></linearGradient><path fill="url(#zaaRGm7Mb093s9LFqRqM2a)" d="M21,7V5c0-1.105-0.895-2-2-2H5C3.895,3,3,3.895,3,5v2c0,1.105,0.895,2,2,2 C3.895,9,20.105,9,19,9C20.105,9,21,8.105,21,7z"/><linearGradient id="zaaRGm7Mb093s9LFqRqM2b" x1="6.586" x2="17.414" y1=".586" y2="11.414" gradientUnits="userSpaceOnUse"><stop offset="0" stop-color="#fff" stop-opacity=".6"/><stop offset=".493" stop-color="#fff" stop-opacity="0"/><stop offset=".997" stop-color="#fff" stop-opacity=".3"/></linearGradient><path fill="url(#zaaRGm7Mb093s9LFqRqM2b)" d="M19,3.5c0.827,0,1.5,0.673,1.5,1.5v2 c0,0.827-0.673,1.5-1.5,1.5H5C4.173,8.5,3.5,7.827,3.5,7V5c0-0.827,0.673-1.5,1.5-1.5H19 M19,3H5C3.895,3,3,3.895,3,5v2 c0,1.105,0.895,2,2,2c0.947,0,14.054,0,14.054,0S19.036,9,19,9c1.105,0,2-0.895,2-2V5C21,3.895,20.105,3,19,3L19,3z M5,9 C4.965,9,4.946,9,4.946,9S4.964,9,5,9L5,9z"/><g><linearGradient id="zaaRGm7Mb093s9LFqRqM2c" x1="6.586" x2="17.414" y1="6.586" y2="17.414" gradientUnits="userSpaceOnUse"><stop offset="0" stop-color="#fff" stop-opacity=".6"/><stop offset="1" stop-color="#fff" stop-opacity=".3"/></linearGradient><path fill="url(#zaaRGm7Mb093s9LFqRqM2c)" d="M21,13v-2c0-1.105-0.895-2-2-2H5 c-1.105,0-2,0.895-2,2v2c0,1.105,0.895,2,2,2c-1.105,0,15.105,0,14,0C20.105,15,21,14.105,21,13z"/><linearGradient id="zaaRGm7Mb093s9LFqRqM2d" x1="6.586" x2="17.414" y1="6.586" y2="17.414" gradientUnits="userSpaceOnUse"><stop offset="0" stop-color="#fff" stop-opacity=".6"/><stop offset=".493" stop-color="#fff" stop-opacity="0"/><stop offset=".997" stop-color="#fff" stop-opacity=".3"/></linearGradient><path fill="url(#zaaRGm7Mb093s9LFqRqM2d)" d="M19,9.5c0.827,0,1.5,0.673,1.5,1.5v2 c0,0.827-0.673,1.5-1.5,1.5H5c-0.827,0-1.5-0.673-1.5-1.5v-2c0-0.827,0.673-1.5,1.5-1.5H19 M19,9H5c-1.105,0-2,0.895-2,2v2 c0,1.105,0.895,2,2,2c0.947,0,14.054,0,14.054,0S19.036,15,19,15c1.105,0,2-0.895,2-2v-2C21,9.895,20.105,9,19,9L19,9z M5,15 c-0.035,0-0.054,0-0.054,0S4.964,15,5,15L5,15z"/></g><g><linearGradient id="zaaRGm7Mb093s9LFqRqM2e" x1="6.586" x2="17.414" y1="12.586" y2="23.414" gradientUnits="userSpaceOnUse"><stop offset="0" stop-color="#fff" stop-opacity=".6"/><stop offset="1" stop-color="#fff" stop-opacity=".3"/></linearGradient><path fill="url(#zaaRGm7Mb093s9LFqRqM2e)" d="M21,19v-2c0-1.105-0.895-2-2-2H5 c-1.105,0-2,0.895-2,2v2c0,1.105,0.895,2,2,2c-1.105,0,15.105,0,14,0C20.105,21,21,20.105,21,19z"/><linearGradient id="zaaRGm7Mb093s9LFqRqM2f" x1="6.586" x2="17.414" y1="12.586" y2="23.414" gradientUnits="userSpaceOnUse"><stop offset="0" stop-color="#fff" stop-opacity=".6"/><stop offset=".493" stop-color="#fff" stop-opacity="0"/><stop offset=".997" stop-color="#fff" stop-opacity=".3"/></linearGradient><path fill="url(#zaaRGm7Mb093s9LFqRqM2f)" d="M19,15.5c0.827,0,1.5,0.673,1.5,1.5v2 c0,0.827-0.673,1.5-1.5,1.5H5c-0.827,0-1.5-0.673-1.5-1.5v-2c0-0.827,0.673-1.5,1.5-1.5H19 M19,15H5c-1.105,0-2,0.895-2,2v2 c0,1.105,0.895,2,2,2c0.947,0,14.054,0,14.054,0S19.036,21,19,21c1.105,0,2-0.895,2-2v-2C21,15.895,20.105,15,19,15L19,15z M5,21 c-0.035,0-0.054,0-0.054,0S4.964,21,5,21L5,21z"/></g></svg>