<svg xmlns="http://www.w3.org/2000/svg"  viewBox="0 0 24 24" width="24px" height="24px"><path fill="#969696" d="M21,11H3c-0.552,0-1-0.448-1-1v0c0-0.552,0.448-1,1-1h18c0.552,0,1,0.448,1,1v0C22,10.552,21.552,11,21,11z"/><path fill="#969696" d="M21,21H3c-0.552,0-1-0.448-1-1v0c0-0.552,0.448-1,1-1h18c0.552,0,1,0.448,1,1v0C22,20.552,21.552,21,21,21z"/><path fill="#969696" d="M16,19H9v-4c0-1.105,0.895-2,2-2h3c1.105,0,2,0.895,2,2V19z" opacity=".35"/><path fill="#969696" d="M11,9H4V4c0-1.105,0.895-2,2-2h3c1.105,0,2,0.895,2,2V9z" opacity=".35"/><path fill="#969696" d="M20,9h-4V7c0-0.552,0.448-1,1-1h2c0.552,0,1,0.448,1,1V9z" opacity=".35"/><path fill="#969696" d="M20,19h-4v-3c0-0.552,0.448-1,1-1h2c0.552,0,1,0.448,1,1V19z"/><path fill="#969696" d="M16,9h-5V6c0-0.552,0.448-1,1-1h3c0.552,0,1,0.448,1,1V9z"/><path fill="#969696" d="M8,14H5c-0.552,0-1,0.448-1,1v4h5v-4C9,14.448,8.552,14,8,14z"/></svg>