<svg xmlns="http://www.w3.org/2000/svg"  viewBox="0 0 24 24" width="48px" height="48px"><linearGradient id="L5HsoXb2lJDBKsKgxDfpia" x1="3.879" x2="20.121" y1="3.879" y2="20.121" gradientUnits="userSpaceOnUse"><stop offset="0" stop-color="#fff" stop-opacity=".6"/><stop offset="1" stop-color="#fff" stop-opacity=".3"/></linearGradient><path fill="url(#L5HsoXb2lJDBKsKgxDfpia)" d="M18,21H6c-1.657,0-3-1.343-3-3V6c0-1.657,1.343-3,3-3h12c1.657,0,3,1.343,3,3v12 C21,19.657,19.657,21,18,21z"/><linearGradient id="L5HsoXb2lJDBKsKgxDfpib" x1="3" x2="21" y1="12" y2="12" gradientUnits="userSpaceOnUse"><stop offset="0" stop-color="#fff" stop-opacity=".6"/><stop offset=".493" stop-color="#fff" stop-opacity="0"/><stop offset=".997" stop-color="#fff" stop-opacity=".3"/></linearGradient><path fill="url(#L5HsoXb2lJDBKsKgxDfpib)" d="M18,3.5c1.378,0,2.5,1.121,2.5,2.5v12 c0,1.379-1.122,2.5-2.5,2.5H6c-1.378,0-2.5-1.121-2.5-2.5V6c0-1.379,1.122-2.5,2.5-2.5H18 M18,3H6C4.343,3,3,4.343,3,6v12 c0,1.657,1.343,3,3,3h12c1.657,0,3-1.343,3-3V6C21,4.343,19.657,3,18,3L18,3z"/><g><linearGradient id="L5HsoXb2lJDBKsKgxDfpic" x1="8.543" x2="15.457" y1="4.043" y2="10.957" gradientUnits="userSpaceOnUse"><stop offset="0" stop-color="#fff" stop-opacity=".6"/><stop offset="1" stop-color="#fff" stop-opacity=".3"/></linearGradient><path fill="url(#L5HsoXb2lJDBKsKgxDfpic)" d="M17,9H7C6.448,9,6,8.552,6,8V7 c0-0.552,0.448-1,1-1h10c0.552,0,1,0.448,1,1v1C18,8.552,17.552,9,17,9z"/></g><g><linearGradient id="L5HsoXb2lJDBKsKgxDfpid" x1="5.793" x2="11.207" y1="11.793" y2="17.207" gradientUnits="userSpaceOnUse"><stop offset="0" stop-color="#fff" stop-opacity=".6"/><stop offset="1" stop-color="#fff" stop-opacity=".3"/></linearGradient><path fill="url(#L5HsoXb2lJDBKsKgxDfpid)" d="M10,18H7c-0.552,0-1-0.448-1-1v-5 c0-0.552,0.448-1,1-1h3c0.552,0,1,0.448,1,1v5C11,17.552,10.552,18,10,18z"/></g><g><linearGradient id="L5HsoXb2lJDBKsKgxDfpie" x1="12.793" x2="18.207" y1="11.793" y2="17.207" gradientUnits="userSpaceOnUse"><stop offset="0" stop-color="#fff" stop-opacity=".6"/><stop offset="1" stop-color="#fff" stop-opacity=".3"/></linearGradient><path fill="url(#L5HsoXb2lJDBKsKgxDfpie)" d="M17,18h-3c-0.552,0-1-0.448-1-1v-5 c0-0.552,0.448-1,1-1h3c0.552,0,1,0.448,1,1v5C18,17.552,17.552,18,17,18z"/></g></svg>