<svg width="496" height="164" viewBox="0 0 496 164" fill="none" xmlns="http://www.w3.org/2000/svg">
<path d="M133.139 -7.81641V50.2995C133.139 85.2028 115.63 117.779 86.5206 137.037L0.138672 194.184" stroke="#E6E5E5" stroke-width="0.5"/>
<path d="M391.139 -7.81641V50.2995C391.139 85.2028 408.647 117.779 437.757 137.037L524.139 194.184" stroke="#E6E5E5" stroke-width="0.5"/>
<path d="M419.904 -7.81641V50.2995C419.904 85.2028 437.413 117.779 466.522 137.037L552.904 194.184" stroke="#E6E5E5" stroke-width="0.5"/>
<path d="M161.138 -7.81641V63.1178C161.138 90.7002 150.181 117.153 130.678 136.657L62.1387 205.196" stroke="#E6E5E5" stroke-width="0.5"/>
<path d="M360.139 -7.81641V63.1178C360.139 90.7002 371.096 117.153 390.6 136.657L459.139 205.196" stroke="#E6E5E5" stroke-width="0.5"/>
<path d="M192.138 -7.81641V77.5492C192.138 96.2978 187.07 114.698 177.47 130.802L131.639 207.684" stroke="#E6E5E5" stroke-width="0.5"/>
<path d="M326.139 -7.81641V77.5492C326.139 96.2978 331.207 114.698 340.808 130.802L386.639 207.684" stroke="#E6E5E5" stroke-width="0.5"/>
<path d="M226.64 -7.81641V88.7281C226.64 100.292 224.711 111.775 220.933 122.705L189.139 214.684" stroke="#E6E5E5" stroke-width="0.5"/>
<path d="M293.138 -7.81641V88.7281C293.138 100.292 295.067 111.775 298.845 122.705L330.639 214.684" stroke="#E6E5E5" stroke-width="0.5"/>
<path d="M259.639 -7.81641V106.196L251.139 216.684" stroke="#E6E5E5" stroke-width="0.5"/>
<path d="M74.0488 145.184L478.643 145.184" stroke="#E6E5E5" stroke-width="0.5"/>
<path d="M99.0488 127.184L454.158 127.184" stroke="#E6E5E5" stroke-width="0.5"/>
<path d="M115.049 109.184L438.201 109.184" stroke="#E6E5E5" stroke-width="0.5"/>
<path d="M124.654 91.1836L428.463 91.1836" stroke="#E6E5E5" stroke-width="0.5"/>
<path d="M130.486 73.1836L422.662 73.1836" stroke="#E6E5E5" stroke-width="0.5"/>
<path d="M132.826 55.1836L419.814 55.1836" stroke="#E6E5E5" stroke-width="0.5"/>
<path d="M133.049 37.1836L419.814 37.1836" stroke="#E6E5E5" stroke-width="0.5"/>
<path d="M133.049 19.1836L419.814 19.1836" stroke="#E6E5E5" stroke-width="0.5"/>
</svg>
