<svg xmlns="http://www.w3.org/2000/svg"  viewBox="0 0 24 24" width="48px" height="48px" fill-rule="evenodd" clip-rule="evenodd" baseProfile="basic"><linearGradient id="6joOaMCCS04hZ-I6CZQSta" x1="5.271" x2="19.413" y1="4.917" y2="19.06" gradientUnits="userSpaceOnUse"><stop offset="0" stop-color="#fff" stop-opacity=".6"/><stop offset="1" stop-color="#fff" stop-opacity=".3"/></linearGradient><path fill="url(#6joOaMCCS04hZ-I6CZQSta)" fill-rule="evenodd" d="M8.991,3.897c0.571-1.092,1.878-1.909,3.351-1.909 s2.781,0.816,3.351,1.909c1.176-0.369,2.677-0.022,3.72,1.02c1.042,1.042,1.389,2.543,1.02,3.72 c1.092,0.571,1.909,1.878,1.909,3.351s-0.816,2.78-1.909,3.351c0.369,1.176,0.022,2.677-1.02,3.72 c-1.042,1.042-2.543,1.389-3.72,1.02c-0.571,1.092-1.878,1.909-3.351,1.909s-2.78-0.816-3.351-1.909 c-1.176,0.369-2.678,0.022-3.72-1.02c-1.042-1.042-1.389-2.544-1.02-3.72c-1.092-0.571-1.909-1.878-1.909-3.351 s0.816-2.781,1.909-3.351c-0.369-1.176-0.022-2.677,1.02-3.72C6.313,3.875,7.815,3.529,8.991,3.897z" clip-rule="evenodd"/><linearGradient id="6joOaMCCS04hZ-I6CZQStb" x1="5.271" x2="19.413" y1="4.917" y2="19.06" gradientUnits="userSpaceOnUse"><stop offset="0" stop-color="#fff" stop-opacity=".6"/><stop offset=".493" stop-color="#fff" stop-opacity="0"/><stop offset=".997" stop-color="#fff" stop-opacity=".3"/></linearGradient><path fill="url(#6joOaMCCS04hZ-I6CZQStb)" d="M12.342,2.489c1.227,0,2.395,0.659,2.908,1.64l0.194,0.371l0.399-0.125 c0.254-0.08,0.528-0.12,0.814-0.12c0.88,0,1.756,0.37,2.402,1.016c0.867,0.867,1.228,2.16,0.897,3.217l-0.125,0.399l0.37,0.194 c0.981,0.513,1.64,1.682,1.64,2.908c0,1.227-0.659,2.395-1.64,2.908l-0.37,0.194l0.125,0.399c0.331,1.056-0.029,2.349-0.897,3.217 c-0.646,0.646-1.522,1.017-2.402,1.017c-0.287,0-0.561-0.04-0.815-0.12l-0.399-0.125l-0.194,0.37 c-0.513,0.981-1.682,1.64-2.908,1.64s-2.395-0.659-2.908-1.64L9.24,19.478l-0.399,0.125c-0.254,0.08-0.528,0.12-0.815,0.12 c-0.88,0-1.756-0.371-2.402-1.017c-0.867-0.867-1.228-2.16-0.897-3.217l0.125-0.399l-0.371-0.194 c-0.981-0.513-1.64-1.682-1.64-2.908c0-1.227,0.659-2.395,1.64-2.908l0.37-0.194L4.728,8.487C4.397,7.431,4.757,6.138,5.625,5.271 c0.646-0.646,1.522-1.017,2.402-1.017c0.286,0,0.56,0.04,0.814,0.12L9.24,4.499l0.194-0.37C9.947,3.148,11.115,2.489,12.342,2.489 M12.342,1.989c-1.474,0-2.781,0.817-3.352,1.909c-0.304-0.095-0.63-0.143-0.964-0.143c-0.958,0-1.983,0.39-2.756,1.163 c-1.042,1.042-1.389,2.544-1.02,3.72c-1.092,0.571-1.909,1.878-1.909,3.352c0,1.474,0.816,2.781,1.909,3.352 c-0.369,1.176-0.022,2.677,1.02,3.72c0.773,0.773,1.798,1.163,2.756,1.163c0.334,0,0.66-0.048,0.964-0.143 c0.571,1.092,1.878,1.909,3.352,1.909s2.781-0.816,3.352-1.909c0.304,0.095,0.63,0.143,0.964,0.143c0.958,0,1.983-0.39,2.756-1.163 c1.042-1.042,1.389-2.543,1.02-3.72c1.092-0.571,1.909-1.878,1.909-3.352c0-1.474-0.816-2.78-1.909-3.352 c0.369-1.176,0.022-2.677-1.02-3.72c-0.773-0.773-1.798-1.163-2.756-1.163c-0.334,0-0.66,0.047-0.964,0.143 C15.123,2.805,13.816,1.989,12.342,1.989L12.342,1.989z"/><linearGradient id="6joOaMCCS04hZ-I6CZQStc" x1="10.793" x2="13.207" y1="10.793" y2="13.207" gradientUnits="userSpaceOnUse"><stop offset="0" stop-color="#fff" stop-opacity=".7"/><stop offset=".519" stop-color="#fff" stop-opacity=".45"/><stop offset="1" stop-color="#fff" stop-opacity=".55"/></linearGradient><path fill="url(#6joOaMCCS04hZ-I6CZQStc)" d="M8.999,17C8.79,17,8.58,16.935,8.4,16.8c-0.442-0.331-0.532-0.958-0.2-1.399l6-8	c0.331-0.442,0.958-0.531,1.399-0.2c0.442,0.331,0.532,0.958,0.2,1.399l-6,8C9.604,16.862,9.304,17,8.999,17z"/><linearGradient id="6joOaMCCS04hZ-I6CZQStd" x1="14.439" x2="16.561" y1="13.439" y2="15.561" gradientUnits="userSpaceOnUse"><stop offset="0" stop-color="#fff" stop-opacity=".7"/><stop offset=".519" stop-color="#fff" stop-opacity=".45"/><stop offset="1" stop-color="#fff" stop-opacity=".55"/></linearGradient><circle cx="15.5" cy="14.5" r="1.5" fill="url(#6joOaMCCS04hZ-I6CZQStd)"/><linearGradient id="6joOaMCCS04hZ-I6CZQSte" x1="7.439" x2="9.561" y1="8.439" y2="10.561" gradientUnits="userSpaceOnUse"><stop offset="0" stop-color="#fff" stop-opacity=".7"/><stop offset=".519" stop-color="#fff" stop-opacity=".45"/><stop offset="1" stop-color="#fff" stop-opacity=".55"/></linearGradient><circle cx="8.5" cy="9.5" r="1.5" fill="url(#6joOaMCCS04hZ-I6CZQSte)"/></svg>