<svg xmlns="http://www.w3.org/2000/svg"  viewBox="0 0 24 24" width="48px" height="48px" baseProfile="basic"><linearGradient id="_WKHRCuuz3mqvXSuY2xnWa" x1="4.929" x2="19.071" y1="4.929" y2="19.071" gradientUnits="userSpaceOnUse"><stop offset="0" stop-color="#fff" stop-opacity=".6"/><stop offset="1" stop-color="#fff" stop-opacity=".3"/></linearGradient><circle cx="12" cy="12" r="10" fill="url(#_WKHRCuuz3mqvXSuY2xnWa)"/><linearGradient id="_WKHRCuuz3mqvXSuY2xnWb" x1="4.929" x2="19.071" y1="4.929" y2="19.071" gradientUnits="userSpaceOnUse"><stop offset="0" stop-color="#fff" stop-opacity=".6"/><stop offset=".493" stop-color="#fff" stop-opacity="0"/><stop offset=".997" stop-color="#fff" stop-opacity=".3"/></linearGradient><path fill="url(#_WKHRCuuz3mqvXSuY2xnWb)" d="M12,2.5c5.238,0,9.5,4.262,9.5,9.5s-4.262,9.5-9.5,9.5S2.5,17.238,2.5,12S6.762,2.5,12,2.5 M12,2C6.477,2,2,6.477,2,12s4.477,10,10,10s10-4.477,10-10S17.523,2,12,2L12,2z"/><linearGradient id="_WKHRCuuz3mqvXSuY2xnWc" x1="7.982" x2="16.017" y1="8.36" y2="16.395" gradientUnits="userSpaceOnUse"><stop offset="0" stop-color="#fff" stop-opacity=".7"/><stop offset=".519" stop-color="#fff" stop-opacity=".45"/><stop offset="1" stop-color="#fff" stop-opacity=".55"/></linearGradient><path fill="url(#_WKHRCuuz3mqvXSuY2xnWc)" d="M16,10c0-2.21-1.79-4-4-4s-4,1.79-4,4c-0.55,0-1,0.45-1,1v4c0,0.55,0.45,1,1,1h8	c0.55,0,1-0.45,1-1v-4C17,10.45,16.55,10,16,10z M13,13c0,0.55-0.45,1-1,1s-1-0.45-1-1l0,0c0-0.55,0.45-1,1-1S13,12.45,13,13L13,13z M10,10c0-1.1,0.9-2,2-2s2,0.9,2,2H10z"/></svg>